<?xml version="1.0" encoding="UTF-8" standalone="no"?>
<!-- Created with Inkscape (http://www.inkscape.org/) -->

<svg
   version="1.1"
   id="svg1"
   width="249.14651"
   height="194.03568"
   viewBox="0 0 249.14651 194.03568"
   sodipodi:docname="LOGO A COLOR SIN FONDO.svg"
   inkscape:version="1.4.3 (0d15f75, 2025-12-25)"
   xmlns:inkscape="http://www.inkscape.org/namespaces/inkscape"
   xmlns:sodipodi="http://sodipodi.sourceforge.net/DTD/sodipodi-0.dtd"
   xmlns:xlink="http://www.w3.org/1999/xlink"
   xmlns="http://www.w3.org/2000/svg"
   xmlns:svg="http://www.w3.org/2000/svg">
  <defs
     id="defs1">
    <color-profile
       name="Agfa-:-Swop-Standard"
       xlink:href="file:///C:/Windows/system32/spool/drivers/color/RSWOP.icm"
       id="color-profile1" />
  </defs>
  <sodipodi:namedview
     id="namedview1"
     pagecolor="#ffffff"
     bordercolor="#000000"
     borderopacity="0.25"
     inkscape:showpageshadow="2"
     inkscape:pageopacity="0.0"
     inkscape:pagecheckerboard="true"
     inkscape:deskcolor="#d1d1d1"
     inkscape:zoom="1.71"
     inkscape:cx="161.40351"
     inkscape:cy="179.53216"
     inkscape:window-width="1278"
     inkscape:window-height="1048"
     inkscape:window-x="1273"
     inkscape:window-y="492"
     inkscape:window-maximized="0"
     inkscape:current-layer="g1" />
  <g
     inkscape:groupmode="layer"
     inkscape:label="Image"
     id="g1"
     transform="translate(-118.55066,-121.14791)">
    <g
       id="g4586"
       transform="translate(2.8098838,2.3844222)">
      <path
         style="display:inline;fill:#adcbd5"
         d="m 239,312.43306 c -23.56633,-4.10492 -37.26741,-10.14351 -52.93702,-23.33136 l -5.43703,-4.5759 -6.92171,-8.7629 L 166.78252,267 h -15.97459 -15.9746 l 0.41544,-1.25 0.41544,-1.25 14.76442,-0.27729 14.76441,-0.27728 -0.52813,-1.22272 C 156.93415,244.82461 156.85629,244.5901 154.46428,232 l -1.42493,-7.5 -0.0195,-8.5 -0.0195,-8.5 1.49348,-7.80475 C 162.08515,160.02365 189.73087,130.62334 228,121.52383 l 6.5,-1.54555 11,-0.6074 11,-0.60739 9.24162,1.61673 c 15.47261,2.70679 25.77889,6.86301 38.75838,15.63015 l 7,4.72822 6.62268,6.63302 c 3.64248,3.64816 7.69248,8.2039 9,10.12387 l 2.37732,3.49085 3.75,0.007 L 337,161 v 1.59362 1.59362 l -2,0.52301 c -1.1,0.28766 -2,0.70676 -2,0.93135 0,0.22458 1.6164,3.61808 3.59201,7.54111 4.45223,8.84096 7.11336,16.94339 8.97196,27.31729 l 1.4333,8 10e-4,6.80845 c 7.5e-4,3.74464 -0.49238,10.04464 -1.09584,14 -1.89415,12.41497 -2.93207,15.69623 -10.57817,33.44155 l -0.5386,1.25 h 14.54797 14.54798 l 0.65915,1.06653 c 0.36253,0.58659 0.45582,1.26986 0.20731,1.51838 -0.24852,0.24851 -7.51377,0.48418 -16.145,0.52369 l -15.69314,0.0718 -0.93356,1.15978 c -0.51345,0.63787 -3.67424,4.64037 -7.02397,8.89444 l -6.09043,7.73467 -7.83575,6.26533 -7.83575,6.26533 -8.34542,4.14623 c -10.56694,5.24995 -12.33883,5.94004 -21.68341,8.44499 l -7.662,2.05391 -12,0.3617 c -6.6,0.19893 -13.125,0.16574 -14.5,-0.0738 z m 35.45362,-6.42544 7.95361,-2.15888 8.04639,-4.01507 c 13.26209,-6.61765 23.90188,-15.04647 32.88182,-26.04891 l 3.83543,-4.69927 -0.63056,-1.02026 -0.63055,-1.02027 -76.45488,0.0112 L 173,267.06732 v 1.12195 c 0,1.79467 4.87348,7.81338 11.80282,14.57638 l 6.41975,6.26566 7.55697,4.96107 7.55696,4.96107 7.58175,3.15762 7.58175,3.15762 8.5,1.85564 8.5,1.85564 14,-0.40673 14,-0.40673 z M 303,264.12324 l 6.5,-0.1318 -4.5,-3.02523 c -2.475,-1.66387 -8.4472,-5.5333 -13.27155,-8.59872 l -8.77154,-5.57349 -2.48786,0.62441 -2.48785,0.62441 2.09042,4.09757 2.09042,4.09757 -0.90804,0.90804 c -0.49943,0.49943 -5.37339,2.19151 -10.83103,3.76017 l -9.92297,2.85212 3,0.37085 c 2.71368,0.33547 22.81405,0.33246 39.5,-0.006 z m -111.49465,-8.6687 6.99465,-8.54547 8.5,-7.7072 c 4.675,-4.23895 9.28243,-8.31939 10.23873,-9.06762 l 1.73873,-1.36043 4.0315,1.61309 c 2.21733,0.8872 4.68042,1.61309 5.47353,1.61309 h 1.44201 L 238.96225,220.33053 248,208.66107 v -8.82293 -8.82293 l -1.90921,-2.2576 c -1.05007,-1.24169 -3.97507,-4.70571 -6.5,-7.69784 L 235,175.61954 v -14.26408 -14.26408 l 6.75,-0.29569 6.75,-0.29569 0.3427,-2.42666 c 0.18849,-1.33467 1.06797,-3.53356 1.95441,-4.88644 l 1.6117,-2.45976 3.26347,-1.36357 L 258.93576,134 h 13.1661 13.1661 l 3.92525,1.17603 3.92525,1.17604 2.44077,2.90069 2.44077,2.90069 v 4.21105 4.21105 l -2.85633,3.42142 -2.85632,3.42142 -7.26695,0.41061 -7.26694,0.41062 0.45144,-1.36981 0.45144,-1.36981 4.92183,-0.27114 c 2.70701,-0.14913 5.90465,-0.77179 7.10588,-1.38369 l 2.18406,-1.11254 1.17922,-2.84691 1.17923,-2.8469 -0.62539,-2.49173 c -0.34396,-1.37046 -1.60479,-3.40419 -2.80184,-4.51941 L 289.62288,138 h -16.22965 c -8.92631,0 -16.9581,0.27953 -17.84843,0.62118 -1.61631,0.62024 -4.5448,5.34286 -4.5448,7.32916 V 147 h 7 7 v 3.89159 3.89159 l 2.48477,0.62364 2.48477,0.62364 0.62364,2.48477 0.62364,2.48477 h 4.14819 c 2.28151,0 5.69722,0.44425 7.59047,0.98723 l 3.44227,0.98723 0.59604,-0.96441 0.59604,-0.96441 18.92465,-0.27282 18.92465,-0.27282 -6.87627,-7.28771 c -3.78195,-4.00824 -9.84325,-9.52474 -13.46956,-12.25887 l -6.5933,-4.97116 -8.1283,-3.9608 -8.1283,-3.96081 -7.43079,-2.0386 c -4.08694,-1.12124 -11.09499,-2.39283 -15.57345,-2.82577 l -8.14266,-0.78716 -9.29825,0.80977 -9.29825,0.80977 -7.17088,1.9609 c -9.51859,2.6029 -18.92375,6.99616 -27.66678,12.92351 l -7.16234,4.85572 -7.1095,7.3656 -7.10949,7.36561 -4.45551,7 c -5.43126,8.533 -9.93398,18.66479 -12.44364,28 l -1.88186,7 v 15.5 15.5 l 1.89258,7 c 1.04091,3.85 3.68348,11.1625 5.87238,16.25 l 3.9798,9.25 h 7.63297 7.63296 z m 63.10299,0.20546 6.10835,-8.20376 -5.79646,-6.46057 -5.79647,-6.46057 -2.42975,2.28263 -2.42975,2.28264 -5.72139,10.44981 c -5.49955,10.04462 -6.43986,11.2195 -7.85049,9.80887 l -0.64094,-0.64095 4.47428,-8.66303 C 236.98657,245.2904 239,240.56854 239,239.56204 239,236.89367 236.80598,230 235.95672,230 c -1.53022,0 -4.58163,5.87927 -8.03741,15.48601 l -3.59221,9.98602 -7.91355,2.34021 C 212.0611,259.09936 205.8,260.98376 202.5,261.9998 l -6,1.84734 26,0.008 26,0.008 z m 78.87236,1.37832 c 1.92822,-3.82892 4.68867,-10.91642 6.13434,-15.75 l 2.62849,-8.78832 0.45424,-14 0.45424,-14 -2.54514,-10 -2.54513,-10 -4.78087,-9.5 -4.78087,-9.5 -10,-0.63254 c -5.5,-0.3479 -17.95536,-0.6854 -27.67857,-0.75 L 273.14286,164 l -1.57143,1.57143 C 270.70714,166.43571 270,167.52942 270,168.00188 c 0,0.47246 -1.0125,1.00282 -2.25,1.17857 l -2.25,0.31955 -0.5,3.24005 -0.5,3.24005 -5.47855,7.00995 C 256.00824,186.84552 253.19574,190 252.77145,190 H 252 v 9.55338 9.55338 l 5.73321,7.19662 c 3.15327,3.95814 6.29473,7.87162 6.98102,8.69662 0.68629,0.825 1.90547,2.4 2.70929,3.5 l 1.4615,2 5.15766,-2.864 5.15767,-2.86399 3.14982,2.29996 c 1.73241,1.26498 5.0447,3.67878 7.36065,5.364 l 4.21083,3.06403 10.75661,14.25 10.75661,14.25 h 7.26999 7.27 z m -126.52247,-2.89324 5.45823,-4.64508 -4.95823,-0.65936 -4.95823,-0.65937 -4.79434,5.15937 c -2.63689,2.83765 -5.22778,5.92361 -5.75754,6.8577 l -0.96319,1.69834 5.25754,-1.55326 5.25753,-1.55326 z m 59.11705,4.74642 c 5.73359,-1.70967 10.75518,-3.30688 11.15907,-3.54935 l 0.73436,-0.44084 -4.92476,-9.81374 -4.92477,-9.81373 -3.18459,-0.63692 C 263.18307,234.28661 259.71275,234 257.22278,234 h -4.52722 l 5.65222,5.92576 5.65222,5.92577 v 1.43673 c 0,1.2377 -2.36693,4.69866 -7.35533,10.75506 -0.69914,0.84883 -1.60676,2.08633 -2.01694,2.75 L 253.88197,262 h 0.88429 c 0.48636,0 5.57542,-1.39882 11.30902,-3.1085 z m 34.80145,-9.1415 c -3.41724,-4.5375 -6.39324,-8.46828 -6.61334,-8.73506 -0.51439,-0.6235 -4.21304,4.16433 -4.23726,5.48506 -0.0142,0.77364 15.44815,11.3529 16.76881,11.47315 0.16222,0.0148 -2.50098,-3.68565 -5.91821,-8.22315 z m -84.34351,4.69732 5.34104,-1.55268 1.66476,-5.0121 c 0.91561,-2.75666 1.50531,-5.17154 1.31044,-5.36641 -0.19487,-0.19487 -3.60653,2.75928 -7.58147,6.56478 -3.97494,3.8055 -6.96811,6.91909 -6.65148,6.91909 0.31662,0 2.97914,-0.69871 5.91671,-1.55268 z m -0.98598,-11.84746 c 0.35083,-1.87007 0.48372,-4.16555 0.29532,-5.10107 l -0.34256,-1.70093 -4.75,4.18606 c -2.6125,2.30233 -4.75,4.59781 -4.75,5.10107 V 246 h 4.45469 4.45468 z m 64.30592,1.07708 1.09804,-1.32307 -1.64146,-5.92693 c -0.90281,-3.25982 -1.75278,-6.0754 -1.88884,-6.25684 -0.13605,-0.18145 -1.52392,0.46985 -3.08414,1.44734 -1.56022,0.97748 -2.97066,1.85984 -3.13431,1.96079 -0.16366,0.10095 0.94259,2.71214 2.45831,5.80266 L 276.41664,245 h 1.16923 c 0.64308,0 1.66336,-0.59538 2.26729,-1.32306 z m 9.17935,-2.22954 c 1.20759,-1.95393 2.03179,-3.66713 1.83156,-3.80711 -0.20024,-0.13998 -2.27657,-1.72912 -4.61407,-3.53143 l -4.25,-3.27692 0.006,1.83403 c 0.0122,4.03115 3.06528,12.33403 4.53531,12.33403 0.16279,0 1.28402,-1.59867 2.49162,-3.5526 z M 223.75,238.67692 c 1.2375,-1.11405 2.25,-2.32487 2.25,-2.69072 0,-0.6988 -5.08989,-3.27027 -5.49007,-2.77364 -0.12739,0.15809 -0.52985,2.23306 -0.89436,4.61103 l -0.66274,4.3236 1.27358,-0.72236 c 0.70048,-0.3973 2.28609,-1.63386 3.52359,-2.74791 z M 247.55853,228.5 c 0.3117,-1.65 0.42605,-5.44251 0.2541,-8.42781 l -0.31263,-5.42781 -4.30357,5.58962 -4.30357,5.58962 1.68415,5.7933 1.68416,5.7933 2.36531,-2.95511 2.36532,-2.95511 z m 11.38031,-5.5 c -3.4038,-4.4 -6.58251,-8 -7.06379,-8 H 251 v 7.41667 7.41666 l 1.25,0.50439 c 0.6875,0.27741 3.86621,0.53991 7.06379,0.58333 L 265.12758,231 Z m -1.22645,-43.91107 1.19348,-1.91107 -1.53472,-0.58893 C 256.52705,176.26502 252.49823,176 248.41821,176 H 241 v 1.3 c 0,0.715 0.54,1.84 1.2,2.5 l 1.2,1.2 h 6.55945 6.55946 z M 250,164.5 V 156 h -1.5 -1.5 v 7.83333 C 247,171.38762 247.38111,173 249.16667,173 H 250 Z m 17,-2 V 159 h -1 -1 v 3.5 3.5 h 1 1 z M 250.5,151 c -0.33992,-0.55 -1.26648,-1 -2.05902,-1 H 247 v 1 1 h 2.05902 2.05901 z M 118.89788,272.71017 c -1.86883,-1.25941 -3.28538,-2.60941 -3.14788,-3 0.1375,-0.39059 0.25347,-2.62267 0.2577,-4.96017 l 0.008,-4.25 4.03228,-2.30287 4.03228,-2.30287 4.21002,2.31646 4.21002,2.31645 0.30188,4.66511 0.30188,4.66511 -3.78402,2.57131 c -4.6471,3.15779 -6.09564,3.19691 -10.42186,0.28147 z"
         id="path4593"
         sodipodi:nodetypes="cscccccccccsscccsscccsscsscccccssssccsscccssscsscccsscsccccsscccccssccccccccccccsscccccsscsscccsscsscccccsscccccsscccccccccccccccccsscccsscssscccccccccsscccccsscccsscccsscccsscccssccccccccccsscsssscssccccsscccccccsscssscccsscccssscccsscccccsccccssccccsscccsscccssscsssssssscssssssscsscccsscssssscsscssccsccsssscsssscccccccssscccsscsccsscssccccccccsscccccccccccsscccccscsccccccccscc" />
      <path
         style="display:inline;fill:#9aa1a7"
         d="M 232.50531,310.87125 C 219.29906,308.71824 209.04712,304.60175 196.5,296.41392 l -8,-5.22053 -6.15068,-6.15738 c -3.38288,-3.38656 -8.09699,-8.83007 -10.47581,-12.09669 L 167.54839,267 h -15.71518 -15.71518 l -0.61803,-1 -0.61803,-1 1.30901,-0.0772 c 0.71996,-0.0424 6.93402,-0.0132 13.80902,0.065 6.875,0.0782 13.24819,-0.14513 14.16263,-0.4963 l 1.66264,-0.6385 -2.8899,-5.82463 c -5.93626,-11.9646 -9.95493,-28.97169 -9.91538,-41.9621 0.0197,-6.48461 1.90558,-19.26491 3.8463,-26.06634 2.0909,-7.32775 2.54162,-8.50759 5.83632,-15.27747 5.21505,-10.71576 9.58877,-17.00275 17.8277,-25.62634 l 7.56306,-7.91616 8.20331,-5.40648 c 11.749,-7.7433 19.03852,-10.87722 33.36059,-14.34246 l 6.84273,-1.6556 13.5,-0.0605 13.5,-0.0605 9,2.29452 9,2.29452 8.11883,3.75193 c 14.41161,6.65999 28.04489,17.32945 36.01252,28.18354 l 3.4541,4.70542 3.70728,0.30782 L 336.5,161.5 v 1.5 1.5 l -2.23063,0.31701 -2.23063,0.31702 3.47359,6.32127 c 1.91048,3.4767 4.76891,10.30905 6.35207,15.18299 l 2.87847,8.86171 1.29577,10.29315 1.29577,10.29316 -1.2578,9.70684 c -1.63261,12.59939 -3.21658,18.55894 -7.58539,28.53926 -1.96642,4.49218 -3.66888,8.61759 -3.78326,9.16759 l -0.20796,1 14.74972,0.0672 14.74972,0.0672 0.004,0.93285 0.004,0.93284 -15.893,0.5 -15.893,0.5 -4.51112,6 c -14.25931,18.96595 -34.91666,32.12848 -58.21032,37.09081 0,0 -33.14761,0.90754 -36.99469,0.28035 z m 28.17233,-1.95428 c 10.40033,-1.43995 16.41786,-3.06625 25.80454,-6.97393 l 7.8131,-3.2526 7.60236,-5.05953 7.60236,-5.05954 7.5,-7.64853 c 4.125,-4.20669 8.31294,-9.06025 9.30654,-10.78569 L 328.11307,267 H 250.05654 C 207.12544,267 172,267.24421 172,267.5427 c 0,1.50371 8.43069,11.64062 13.86793,16.67454 10.38244,9.61231 20.39604,15.62613 33.60175,20.18006 l 7.96968,2.74831 8.53032,1.33034 c 10.89914,1.69977 15.07775,1.77435 24.70796,0.44102 z m -6.33681,-52.54389 6.62619,-8.62691 -2.89069,-3.62309 c -1.58988,-1.99269 -4.28246,-4.94477 -5.98351,-6.56017 L 249,234.62582 l -3.0774,2.93709 -3.07741,2.93709 -5.01533,9.75 C 233.2567,259.14039 231,261.96677 231,258.80398 c 0,-0.65781 2.01084,-5.08937 4.46853,-9.84791 l 4.46853,-8.6519 -1.60788,-5.65209 c -0.88433,-3.10864 -1.88267,-5.64901 -2.21853,-5.64525 -1.47559,0.0165 -5.25241,7.20012 -8.14563,15.49317 -1.72692,4.95 -3.66302,9.50836 -4.30244,10.12968 -1.09304,1.0621 -12.29602,4.7479 -22.89403,7.53218 l -4.73146,1.24303 1.23146,0.78224 1.23145,0.78224 24.60732,0.0153 24.60731,0.0153 z m 52.54728,7.75857 2.3881,-0.66899 -13.59414,-8.79004 -13.59414,-8.79005 -2.04396,1.0939 c -2.46747,1.32055 -2.45751,0.82529 -0.11247,5.59497 l 1.93149,3.92856 -2.68149,1.21706 c -1.47483,0.66938 -6.169,2.23905 -10.4315,3.48817 -4.2625,1.24912 -7.75,2.61394 -7.75,3.03294 V 265 l 21.75,-0.0997 c 11.9625,-0.0548 22.82465,-0.40073 24.13811,-0.76867 z m 22.2042,-0.0411 1.5923,-0.0906 3.56221,-7.75 c 3.89128,-8.46592 6.03091,-14.88604 7.68161,-23.04922 L 343,227.90156 v -11.88541 -11.8854 l -1.50624,-7.16042 C 339.70249,188.45494 336.02565,178.83424 331.28178,170.25 L 327.82787,164 H 313.91393 300 v -0.89467 -0.89468 l 11.91687,-0.35532 11.91688,-0.35533 0.7135,-0.71371 0.71351,-0.71372 -5.15174,-5.94673 -5.15174,-5.94673 -7.22864,-5.51432 C 293.49647,131.80786 280.63843,126.25939 263,123.36357 l -9.5,-1.55968 -8.4285,0.61761 c -20.55588,1.50626 -39.30603,8.69258 -53.5715,20.5322 -11.08792,9.20241 -20.45845,21.3663 -26.52141,34.42747 l -3.76875,8.11883 -2.20145,9 -2.20146,9 -0.0107,12 -0.0107,12 1.5574,7 c 1.88733,8.48297 4.49307,16.0757 8.1507,23.75 l 2.7405,5.75 h 7.75519 7.75518 l 7.22357,-8.75 7.22356,-8.75 9.55899,-8.41527 9.55898,-8.41527 4.09519,1.20882 c 2.25236,0.66485 4.80656,1.4468 5.676,1.73766 l 1.5808,0.52883 9.70771,-12.65358 9.70771,-12.65357 -0.1469,-11.47931 -0.1469,-11.47932 1.85839,-1.40769 c 1.02212,-0.77423 2.61323,-1.422 3.53581,-1.4395 l 1.67742,-0.0318 2.17191,-2.75 2.1719,-2.75 L 255.34933,176 250.5,175.5 250.25,174.25 250,173 h 2.12723 2.12723 l -0.6917,-5.25 c -1.08483,-8.23384 -1.001,-9.64315 0.93678,-15.74855 l 0.58361,-1.83879 -1.79158,-0.42394 -1.79157,-0.42394 2.94353,-1.20622 2.94352,-1.20622 3.55648,0.29883 3.55647,0.29883 0.30445,4.18758 0.30445,4.18759 2.15455,0.31241 2.15456,0.31242 0.58054,2.5 0.58054,2.5 2.71046,0.31642 L 276,162.13284 V 163.06642 164 h -2.52475 -2.52475 L 270,166.5 269.0495,169 H 267.02475 265 v 3.05335 3.05334 l -5.61264,6.94666 L 253.77472,189 H 252.38736 251 v 9.75856 9.75857 l 9.06534,11.29041 9.06534,11.29041 4.56061,-2.54897 C 276.19963,227.14704 278.71767,226 279.28693,226 c 0.56926,0 4.22509,2.40416 8.12405,5.34258 l 7.08902,5.34258 5.98907,7.90742 c 3.29399,4.34908 8.08502,10.60742 10.64675,13.90742 l 4.65769,6 5.85324,-0.15943 c 3.21929,-0.0877 6.56979,-0.20019 7.44556,-0.25 z M 237,167.06336 V 160 h -1 -1 v -6.125 -6.125 l 3.25,0.63847 3.25,0.63847 1.27664,1.7141 1.27665,1.7141 -1.77665,0.66509 -1.77664,0.6651 1.5,0.61803 1.5,0.61802 -0.16256,9.23931 -0.16256,9.23931 -3.08744,0.31336 L 237,174.12672 Z m 46,-9.80774 v -1 l 3.92761,-0.62805 3.92761,-0.62805 2.07239,-2.63462 L 295,149.73028 v -2.93088 c 0,-3.98789 -1.50425,-6.49168 -4.97998,-8.28905 L 287.09932,137 l -14.79966,0.004 -14.79966,0.004 -3.2995,2.01166 -3.2995,2.01167 0.60852,0.98459 0.60851,0.9846 H 251.05902 250 v -1.32569 c 0,-0.72912 1.15996,-2.41662 2.57769,-3.75 l 2.57769,-2.42431 16.67231,-0.33026 16.67231,-0.33025 3.14765,1.6826 3.14765,1.68261 1.74364,3.23775 1.74364,3.23774 -0.65374,3.48474 -0.65375,3.48475 -2.73833,2.62349 -2.73834,2.62349 -4.24921,0.67948 L 283,158.25562 Z m -8.75,99.52966 c 2.0625,-0.56571 3.75,-1.33992 3.75,-1.72047 0,-0.38056 -2.24078,-5.20978 -4.97951,-10.73161 l -4.97951,-10.03969 -7.22795,-0.60597 c -3.97537,-0.33328 -7.41491,-0.41899 -7.64343,-0.19047 -0.22852,0.22852 2.14548,3.33248 5.27556,6.89769 l 5.69106,6.4822 -0.99069,1.81152 c -0.54488,0.99634 -2.82553,4.25529 -5.06811,7.24213 -2.24258,2.98683 -4.07742,5.74694 -4.07742,6.13358 0,0.38663 3.7125,-0.41153 8.25,-1.77369 4.5375,-1.36217 9.9375,-2.93952 12,-3.50522 z m -73.75,2.16494 c 3.63488,-1.64345 12.12226,-8.70297 11.32994,-9.42387 -0.18146,-0.16511 -2.57994,-0.58895 -5.32994,-0.94186 l -5,-0.64165 -5.25,6.4552 c -2.8875,3.55036 -5.25,6.72179 -5.25,7.04763 0,0.86957 4.91013,-0.42023 9.5,-2.49545 z m 100.41671,-9.406 C 297.4362,244.8449 294.24147,241 293.81731,241 c -1.14849,0 -4.05975,4.77268 -3.65392,5.99018 0.38155,1.14463 16.09831,11.85256 16.70906,11.38399 0.20485,-0.15715 -2.47524,-4.13064 -5.95574,-8.82995 z m -84.23852,5.3066 4.56382,-1.14919 2.42109,-5.47452 c 1.3316,-3.01099 2.28965,-5.81887 2.129,-6.23974 -0.16066,-0.42088 -3.8921,2.55364 -8.2921,6.61004 l -8,7.37527 1.30718,0.0137 c 0.71895,0.008 3.3609,-0.50347 5.87101,-1.13552 z M 215.44644,245.75 c 0.21102,-0.6875 0.63829,-3.3875 0.94949,-6 l 0.56581,-4.75 -0.73087,5.4e-4 C 215.20936,235.0013 206,244.05483 206,245.0583 v 0.82097 l 3.75,0.39226 c 2.0625,0.21575 4.10162,0.46791 4.53138,0.56037 0.42977,0.0925 0.95404,-0.3944 1.16506,-1.0819 z m 64.41045,-1.64039 1.35689,-0.85977 -0.68906,-3.37492 c -0.37899,-1.85621 -1.11353,-5.04049 -1.63232,-7.07619 l -0.94325,-3.70128 -3.47457,2.05005 C 272.56356,232.27503 271,233.61806 271,234.13202 c 0,0.51396 1.13258,3.16951 2.51685,5.90122 l 2.51684,4.96676 1.23316,-0.0153 c 0.67823,-0.008 1.84375,-0.40221 2.59004,-0.87508 z m 9.62826,-2.71189 1.93996,-3.60229 -3.46256,-2.92211 c -1.9044,-1.60716 -4.25005,-3.37697 -5.21255,-3.9329 L 281,229.92963 v 0.82509 c 0,1.27967 2.97582,12.39715 3.58004,13.37479 0.2959,0.47877 1.0841,0.87049 1.75157,0.87049 h 1.21358 z m -65.43534,-7.31621 -3.02978,-1.43488 -0.62728,0.62729 c -0.34501,0.34501 -0.85434,2.78701 -1.13185,5.42668 l -0.50456,4.7994 4.16162,-3.99181 4.16163,-3.9918 z m 24.22887,-11.33151 0.5,-8.75 h -0.7692 c -0.42305,0 -2.62325,2.45569 -4.88933,5.45709 L 239,224.91419 v 1.99585 c 0,1.09772 0.41339,3.02953 0.91865,4.29291 0.50525,1.26338 1.19884,3.1698 1.54131,4.2365 l 0.62267,1.93946 2.84802,-2.93946 2.84803,-2.93945 z m 17.10011,8 c -0.65212,-1.10267 -11.36979,-14.70945 -13.54795,-17.2 L 251,212.6 v 9.1501 9.15009 l 5.75,0.36082 c 3.1625,0.19845 6.56406,0.44591 7.55902,0.54991 L 266.11803,232 Z M 253,185.44098 v -1.55901 l -1.01631,0.62811 -1.01631,0.62812 0.57533,0.9309 C 252.39994,187.45614 253,187.19751 253,185.44098 Z m 15,-21.85919 C 268,160.52014 267.04871,158 265.89301,158 H 265 v 4 4 h 1.5 1.5 z M 119.75979,272.70573 116.01958,270.5 l -0.01,-4.7647 -0.01,-4.7647 3.25,-1.98156 c 3.99859,-2.43799 5.72413,-2.48067 9.66264,-0.23904 l 3.07471,1.75 0.006,5.22968 0.006,5.22967 -3.96016,2.02033 c -4.68866,2.39197 -3.70429,2.42454 -8.28005,-0.27395 z"
         id="path4592"
         sodipodi:nodetypes="sscsscccccssscssssscsscccccsscccccccsscccssscccccccssssscccsscsssscssccsscccssscsssssccccccccccsscssscsscccsscccsscccccccccccsscssscccccsscccccccsscccccsscccccccccsscccccccccccccccccccccccccccccccccssscsscssccccccccccccccccccccccccccsscccccccccssccccccccccccccssscssscsssssssscssssssssccsssccscsscsscsssccsscsssccscccsscsssccccssccccccsscsssccccsscccsscsscccsssscccccsccccsscccscc" />
      <path
         style="display:inline;fill:#dc8f4e"
         d="M 239.5,311.87408 C 212.21227,308.71864 187.74002,294.64732 172.32659,273.25 L 167.82444,267 H 151.91222 136 v -1 -1 h 15 c 8.25,0 15,-0.16163 15,-0.35917 0,-0.19754 -1.55063,-3.71531 -3.44586,-7.81727 -4.41866,-9.56363 -7.08835,-19.27181 -8.59817,-31.26677 L 152.75305,216 l 1.20292,-9.55679 c 1.58369,-12.58189 4.28426,-22.13564 9.06097,-32.05481 l 3.90624,-8.11161 5.85955,-7.88839 5.85955,-7.8884 5.83381,-5.31796 c 13.5735,-12.37329 28.3079,-20.00156 45.83929,-23.73187 L 237.13075,120 H 250 262.86925 l 6.81537,1.45017 c 22.26605,4.73774 41.3574,16.5086 55.40147,34.15803 l 5.17299,6.50098 2.12046,-0.16528 c 5.12702,-0.39963 6.61721,1.33813 2.11622,2.46781 l -2.50424,0.62852 3.01953,5.98167 c 6.81803,13.50643 9.4261,22.18154 10.84852,36.08494 l 0.96191,9.40218 -0.95462,8.99549 c -1.20753,11.37868 -3.98526,21.71847 -8.40359,31.28136 C 335.55847,260.90855 334,264.44329 334,264.64083 334,264.83837 340.75,265 349,265 h 15 v 1 1 h -15.91222 -15.91222 l -4.53978,6.36192 -4.53977,6.36192 -7.18571,6.65287 -7.18572,6.65287 -7.24801,4.51749 c -3.9864,2.48461 -11.01851,6.03787 -15.6269,7.89613 l -8.3789,3.37864 -7.48538,1.49635 C 265.86842,311.14118 259.125,312.03608 255,312.30685 l -7.5,0.49232 z m 24.5,-3.26525 c 20.70196,-3.36967 39.54184,-13.08222 53.18488,-27.41847 C 322.81996,275.26896 328,268.78631 328,267.65561 V 267 h -78 -78 v 0.94808 c 0,1.38121 8.91111,11.81809 14.60074,17.10069 5.44418,5.05472 14.69899,11.55098 21.07328,14.79204 10.90756,5.54604 28.64266,9.86024 41.32598,10.05286 l 6.5,0.0987 z M 190.5,257.306 c 3.3,-4.17351 7.95087,-9.55255 10.33527,-11.95342 l 4.33526,-4.36522 0.91474,0.56534 0.91473,0.56533 0.0126,-1.30901 0.0126,-1.30902 5.61278,-4.92312 5.61279,-4.92312 4.12459,1.21667 c 2.26853,0.66917 4.83,1.45309 5.69216,1.74204 l 1.56756,0.52537 9.68244,-12.479 L 249,208.17983 V 196.08992 184 h 1 1 l 0.0859,1.75 c 0.0473,0.9625 0.0264,6.475 -0.0464,12.25 l -0.13231,10.5 9.07238,11.25 c 4.98981,6.1875 9.29461,11.25 9.56624,11.25 0.27162,0 2.27597,-1.125 4.45411,-2.5 2.17814,-1.375 4.49081,-2.5 5.13926,-2.5 1.53354,0 10.26135,6.62871 15.36074,11.66637 2.2,2.17337 7.825,9.21081 12.5,15.63875 l 8.5,11.68717 7.45214,-0.24614 7.45214,-0.24615 3.07241,-6.14669 c 3.70331,-7.40886 6.9332,-16.76816 8.53666,-24.73683 l 1.18388,-5.88352 0.0244,-11.61648 0.0244,-11.61648 -1.20831,-6 c -1.80813,-8.97842 -4.99343,-17.75547 -9.55347,-26.32441 L 328.39968,164.5 321.19984,164.20619 314,163.91238 V 162.95619 162 h 5.5 5.5 v -1.49499 -1.49498 l -8.25,-8.30959 C 308.12523,142.01337 303.45978,138.47016 293.55823,133.08729 281.77275,126.68025 263.38121,122.0008 250,122.00456 l -6.5,0.002 -9,1.57273 -9,1.57272 -8.67609,3.25722 c -29.12883,10.9357 -51.17076,36.4875 -58.48343,67.79611 L 156.63665,203.5 v 12.5 12.5 l 1.71667,7.35125 c 1.79513,7.68725 7.50241,22.75343 10.15002,26.7942 l 1.54277,2.35455 7.22694,-0.0529 7.22695,-0.0529 z m 68.10125,-77.14217 -0.57923,-0.93722 1.46798,-1.21831 1.46797,-1.21831 -0.97898,-1.82925 L 259,173.13148 v -8.98241 -8.9824 l 1.25,-0.58334 L 261.5,154 260.25,153.41667 259,152.83333 v -1.80967 -1.80968 l 1.58179,-0.60699 c 0.86998,-0.33385 1.99498,-0.60699 2.5,-0.60699 H 264 v 4 4 h 2 2 v 1.10699 1.10699 l -1.46797,-0.56332 -1.46798,-0.56331 -0.67149,1.08649 c -0.36932,0.59757 -0.59333,4.74041 -0.49782,9.20632 l 0.17367,8.11984 -2.44396,2.80052 -2.44397,2.80052 z m 36.37975,-37.68672 -1.26389,-1.52289 1.64145,0.62988 c 0.90279,0.34643 1.64144,1.03173 1.64144,1.52289 0,1.28596 -0.57887,1.10536 -2.019,-0.62988 z m -40.64017,113.89597 6.62619,-8.62691 -2.89069,-3.62309 c -1.58988,-1.99269 -4.29308,-4.95495 -6.00712,-6.5828 l -3.11644,-2.95971 -3.35896,3.45971 -3.35896,3.45972 -4.79089,9.27654 -4.79089,9.27653 -0.96141,-0.96141 -0.96141,-0.96141 4.70221,-9.10435 4.70222,-9.10435 -1.70216,-5.21078 c -0.93619,-2.86592 -1.848,-5.37978 -2.02624,-5.58634 -0.37,-0.42877 -6.02551,6.09968 -5.68129,6.55821 0.34969,0.46581 -5.82976,17.69033 -6.75624,18.83226 -0.45287,0.5582 -6.91068,2.79427 -14.35067,4.96905 l -13.52727,3.95414 1.2046,0.76564 1.20459,0.76564 24.60732,0.0153 24.60731,0.0153 z m 53.00585,7.75964 1.84668,-0.72672 -3.84668,-2.58419 C 297.6378,255.643 283.77961,246.85266 282.6262,246.41005 l -1.18359,-0.45418 -1.80245,1.31798 -1.80244,1.31798 1.77113,3.7141 1.77112,3.7141 -1.01156,1.01156 c -0.55636,0.55636 -5.14186,2.19064 -10.18999,3.63172 L 261,263.28347 V 264.14173 265 l 22.25,-0.0703 22.25,-0.0703 z m -29.38907,-8.75756 c 0.25169,-0.25138 -1.85279,-5.10264 -4.67661,-10.78058 l -5.13424,-10.32353 -8.05589,-0.70272 -8.0559,-0.70273 -0.67544,-1.09289 -0.67544,-1.09289 7.70262,0.65111 7.70262,0.65111 -0.79466,-1.3429 C 264.8576,229.90054 261.575,225.60746 258,221.09896 l -6.5,-8.19727 -0.60142,9.29915 -0.60143,9.29916 6.92654,7.67539 6.92654,7.67539 -0.9977,1.82461 c -0.54873,1.00353 -2.83253,4.26838 -5.07511,7.25522 -2.24258,2.98683 -4.07742,5.75674 -4.07742,6.15535 0,0.68925 22.99856,-5.75291 23.95761,-6.7108 z M 198.5,259.9648 l 4,-1.16272 4.94286,-4.37485 c 2.71857,-2.40617 4.73541,-4.5823 4.48186,-4.83584 -0.25354,-0.25354 -2.70282,-0.75802 -5.44285,-1.12107 l -4.98187,-0.66008 -5.25,6.4727 c -2.8875,3.55998 -5.25,6.783 -5.25,7.16226 v 0.68958 l 1.75,-0.50363 c 0.9625,-0.277 3.55,-1.02686 5.75,-1.66635 z m 107.84166,-3.17221 c -0.46291,-0.74658 -3.30501,-4.60533 -6.31577,-8.575 L 294.55179,241 h -1.15458 -1.15457 l -1.25592,3.03206 -1.25592,3.03207 0.6776,0.6776 c 1.33118,1.33118 16.09823,10.91324 16.43326,10.66323 0.18792,-0.14022 -0.0371,-0.86579 -0.5,-1.61237 z m -86.46996,-3.12248 2.3717,-1.17011 1.87744,-5 c 1.03259,-2.75 1.76533,-5.29475 1.6283,-5.65499 -0.13703,-0.36025 -3.84914,2.70951 -8.24914,6.82168 l -8,7.47668 4,-0.65158 c 2.2,-0.35836 5.06727,-1.17812 6.3717,-1.82168 z M 215.44644,245.75 c 0.21102,-0.6875 0.64326,-3.42379 0.96054,-6.08064 l 0.57687,-4.83064 -0.8508,0.33064 c -0.46794,0.18185 -2.93931,2.08896 -5.49192,4.23801 L 206,243.31474 v 1.27927 1.27927 l 3.25,0.40332 c 1.7875,0.22183 3.82662,0.47534 4.53138,0.56336 L 215.06277,247 Z M 279.41821,244.39301 281,243.78602 V 241.39301 239 h 0.78076 c 0.42942,0 1.29033,1.35 1.91314,3 l 1.13237,3 1.33687,-0.01 1.33686,-0.01 2.10132,-3.66217 2.10132,-3.66217 -4.10132,-3.12201 c -2.25573,-1.71711 -4.67443,-3.47285 -5.37491,-3.90164 l -1.27358,-0.77962 0.65139,4.0736 0.6514,4.07359 h -1.0091 -1.00909 l -1.12386,-4.46324 -1.12385,-4.46324 -3.546,2.09218 -3.54599,2.09219 0.67677,3.12106 c 0.37222,1.71658 1.00286,3.34605 1.40143,3.62105 0.39856,0.275 1.25786,1.5125 1.90955,2.75 1.24873,2.37123 1.96163,2.62964 4.53273,1.64301 z M 225.02179,234.2951 c -1.38699,-0.66269 -3.0639,-1.22519 -3.72648,-1.25 L 220.09063,233 l -0.63264,3.75 c -0.34794,2.0625 -0.87964,4.65 -1.18154,5.75 l -0.5489,2 4.90801,-4.5 4.90801,-4.5 z m 23.25689,-11.5451 0.5,-8.75 h -0.7692 c -0.42305,0 -2.55072,2.3625 -4.72815,5.25 l -3.95897,5.25 -0.52251,2.75 -0.52251,2.75 h 0.84228 c 0.46325,0 1.13807,1.2375 1.49959,2.75 0.36152,1.5125 0.87617,3.13527 1.14367,3.60615 l 0.48636,0.85615 2.76472,-2.85615 2.76472,-2.85615 z M 123,274.27847 c -0.825,-0.31 -2.7375,-1.43012 -4.25,-2.48915 L 116,269.86381 v -1.9319 c 0,-2.4986 0.0717,-2.48461 6.01891,1.17474 l 5.04895,3.10665 -1.15637,1.39335 c -0.63601,0.76634 -1.21378,1.35782 -1.28393,1.3144 -0.0702,-0.0434 -0.80256,-0.33258 -1.62756,-0.64258 z m 2.88486,-5.06089 c -1.31167,-0.98033 -4.07236,-2.65766 -6.13486,-3.7274 L 116,263.54519 v -1.28729 -1.2873 l 3.25,-1.98156 c 3.99859,-2.43799 5.72413,-2.48067 9.66264,-0.23904 l 3.07471,1.75 0.006,5.25 L 132,271 h -1.86514 c -1.02583,0 -2.93833,-0.80209 -4.25,-1.78242 z"
         id="path4591"
         sodipodi:nodetypes="sscccccsssscsscccsscccsscsscsscsssscccccccccsscsscsssscccsssscssscccccccsscccccccsscsssssscccsscccsscccccccccssccccsscccsscccsccccccccccccccsscccccccccssccccscsssccsscccccccccsssssccccccccsscccccssccccccsscccccccsscccccssssscssscsscsssscccccsssscssscsssscsscccsscsccccsscccccsscccccccccsssccsscsscccsccsscccsssccccsscsscssssscccsscccss" />
      <path
         style="display:inline;fill:#629fa1"
         d="M 239.5,311.87408 C 212.21227,308.71864 187.74002,294.64732 172.32659,273.25 L 167.82444,267 H 151.91222 136 v -1 -1 h 15 c 8.25,0 15,-0.16163 15,-0.35917 0,-0.19754 -1.55063,-3.71531 -3.44586,-7.81727 -4.41866,-9.56363 -7.08835,-19.27181 -8.59817,-31.26677 L 152.75305,216 l 1.20292,-9.55679 c 1.58369,-12.58189 4.28426,-22.13564 9.06097,-32.05481 l 3.90624,-8.11161 5.85955,-7.88839 5.85955,-7.8884 5.83381,-5.31796 c 13.5735,-12.37329 28.3079,-20.00156 45.83929,-23.73187 L 237.13075,120 H 250 262.86925 l 6.81537,1.45017 c 22.26605,4.73774 41.3574,16.5086 55.40147,34.15803 l 5.17299,6.50098 2.12046,-0.16528 c 5.12702,-0.39963 6.61721,1.33813 2.11622,2.46781 l -2.50424,0.62852 3.01953,5.98167 c 6.81803,13.50643 9.4261,22.18154 10.84852,36.08494 l 0.96191,9.40218 -0.95462,8.99549 c -1.20753,11.37868 -3.98526,21.71847 -8.40359,31.28136 C 335.55847,260.90855 334,264.44329 334,264.64083 334,264.83837 340.75,265 349,265 h 15 v 1 1 h -15.91222 -15.91222 l -4.53978,6.36192 -4.53977,6.36192 -7.18571,6.65287 -7.18572,6.65287 -7.24801,4.51749 c -3.9864,2.48461 -11.01851,6.03787 -15.6269,7.89613 l -8.3789,3.37864 -7.48538,1.49635 C 265.86842,311.14118 259.125,312.03608 255,312.30685 l -7.5,0.49232 z m 24.5,-3.26525 c 20.70196,-3.36967 39.54184,-13.08222 53.18488,-27.41847 6.1707,-6.48424 11.29449,-13.04432 10.67343,-13.66538 -0.23132,-0.23133 -13.14153,-0.61653 -28.68935,-0.85602 -15.54782,-0.23948 -28.52065,-0.68731 -28.82851,-0.99518 -0.30786,-0.30786 8.34466,-0.59048 19.22784,-0.62804 10.88318,-0.0376 20.01685,-0.29755 20.29705,-0.57774 0.76578,-0.76578 -5.78159,-6.03666 -10.67127,-8.59077 C 295.1184,253.74831 293.03915,252 294.58292,252 c 0.38553,0 3.60378,1.8333 7.15168,4.074 3.5479,2.2407 6.65252,3.87221 6.89916,3.62557 0.24664,-0.24664 -0.60583,-1.74244 -1.89437,-3.324 -1.28854,-1.58156 -4.47977,-5.91307 -7.09162,-9.62557 L 294.89895,240 h -1.29201 -1.292 l -1.84357,3.4233 -1.84357,3.4233 1.30855,1.5767 c 1.88913,2.27627 0.49315,1.94065 -3.65645,-0.87907 l -3.614,-2.45578 -0.83295,0.51479 c -0.99513,0.61503 -1.04566,0.11464 -0.20867,-2.06652 l 0.62429,-1.62686 1.43242,2.04507 c 0.78783,1.12479 2.03745,2.04507 2.77694,2.04507 h 1.34452 l 2.33291,-3.75 c 3.16932,-5.09447 3.21909,-5.24863 1.69797,-5.25971 -0.73333,-0.005 -3.30916,-1.58033 -5.72406,-3.5 C 283.69437,231.57063 281.55155,230 281.34745,230 c -0.2041,0 -0.0832,1.8 0.26854,4 l 0.63963,4 h -1.0091 -1.00909 l -1.12386,-4.46324 -1.12385,-4.46324 -3.51898,2.07624 -3.51897,2.07625 0.63541,3.38699 c 0.77693,4.14139 -0.0373,4.3511 -2.01847,0.51988 l -1.48264,-2.86712 -8.02555,-0.70008 -8.02555,-0.70008 -0.67544,-1.09289 -0.67544,-1.09289 7.70262,0.65111 7.70262,0.65111 -0.79466,-1.3429 C 264.8576,229.90054 261.575,225.60704 258,221.09802 l -6.5,-8.19822 -0.24751,5.8001 c -0.13613,3.19006 -0.49402,7.2626 -0.79532,9.0501 l -0.5478,3.25 h -1.09564 -1.09564 l 0.53029,-8.5 0.5303,-8.5 h -0.7692 c -0.42305,0 -2.58232,2.40148 -4.79837,5.33662 l -4.02919,5.33661 -0.3647,2.41339 -0.3647,2.41338 -1.27668,-0.26681 -1.27668,-0.2668 -2.62466,3.11923 -2.62467,3.11924 -3.07491,-0.56351 c -1.69121,-0.30993 -4.04271,-0.84681 -5.22556,-1.19308 l -2.15063,-0.62956 -0.59937,3.09064 c -0.32965,1.69986 -0.86011,4.44065 -1.17882,6.09065 l -0.57945,3 h -1.05984 -1.05983 l 0.59217,-5 0.59218,-5 -0.70288,0.0232 c -0.38659,0.0128 -2.48852,1.63087 -4.67096,3.5958 l -3.96807,3.57259 -0.38989,-1.16968 -0.38989,-1.16967 5.35796,-4.88073 5.35796,-4.88072 1.78212,-0.0454 c 0.98016,-0.025 3.39762,0.62961 5.37212,1.45461 1.97451,0.825 3.92702,1.5 4.33892,1.5 0.4119,0 5.08195,-5.58454 10.37788,-12.41008 L 249,208.17983 V 196.08992 184 h 1 1 l 0.0859,1.75 c 0.0473,0.9625 0.0264,6.475 -0.0464,12.25 l -0.13231,10.5 9.07238,11.25 c 4.98981,6.1875 9.29461,11.25 9.56624,11.25 0.27162,0 2.27597,-1.125 4.45411,-2.5 2.17814,-1.375 4.47141,-2.5 5.09615,-2.5 2.77962,0 15.84845,11.52578 19.97205,17.61393 0.78749,1.16267 4.76244,6.46787 8.83321,11.78934 l 7.40142,9.67541 7.55072,-0.28934 7.55073,-0.28934 3.07241,-6.14669 c 3.70331,-7.40886 6.9332,-16.76816 8.53666,-24.73683 l 1.18388,-5.88352 0.0244,-11.61648 0.0244,-11.61648 -1.20831,-6 c -1.80813,-8.97842 -4.99343,-17.75547 -9.55347,-26.32441 L 328.39968,164.5 321.19984,164.20619 314,163.91238 V 162.95619 162 h 5.5 5.5 v -1.49499 -1.49498 l -8.25,-8.30959 C 308.12523,142.01337 303.45978,138.47016 293.55823,133.08729 281.77275,126.68025 263.38121,122.0008 250,122.00456 l -6.5,0.002 -9,1.57273 -9,1.57272 -8.67609,3.25722 c -29.12883,10.9357 -51.17076,36.4875 -58.48343,67.79611 L 156.63665,203.5 v 12.5 12.5 l 1.71667,7.35125 c 1.79513,7.68725 7.50241,22.75343 10.15002,26.7942 L 170.04611,265 h 7.26435 7.26436 l 8.83091,-10.52814 c 4.85701,-5.79048 9.67767,-10.98131 10.71259,-11.53518 L 206,241.92963 v 0.97617 c 0,0.53689 -0.53557,1.30717 -1.19016,1.71173 l -1.19016,0.73555 3.94016,1.21861 3.94016,1.2186 -5.38976,0.10486 -5.38975,0.10485 -1.11025,1.4228 c -0.61063,0.78254 -3.08629,3.94398 -5.50147,7.02543 -2.41518,3.08145 -4.19418,5.79969 -3.95334,6.04053 0.55085,0.55085 9.56311,-2.07928 12.6733,-3.69857 1.2808,-0.66683 4.5433,-3.39234 7.25,-6.05668 5.69059,-5.60153 6.7489,-5.1895 1.21832,0.47433 L 207.5941,257 h 2.13785 c 1.17582,0 3.29215,-0.43886 4.70295,-0.97525 L 217,255.0495 v 0.90429 0.90429 l -5.75,1.65175 c -15.34963,4.40933 -17.24732,5.04416 -17.24861,5.77015 l -10e-4,0.77997 28.45122,-0.27997 28.45121,-0.27998 -0.93981,0.9386 -0.93982,0.9386 -38.2614,0.41951 c -21.04377,0.23073 -38.43486,0.58182 -38.64686,0.78019 -0.73956,0.69202 3.07171,5.61315 9.97813,12.88381 l 6.95678,7.32368 7.22528,4.976 c 9.08415,6.25619 13.57308,8.52806 23.39929,11.84244 9.35947,3.15696 20.43902,5.15587 29.32598,5.29084 l 6.5,0.0987 z m -10.68769,-44.24188 -2.18768,-1.52815 0.54467,-1.4194 C 251.96887,260.63873 252.67093,260 253.22943,260 h 1.01546 L 253,261.5 l -1.24489,1.5 1.37245,0.11842 c 2.06342,0.17804 2.1794,0.16451 4.87244,-0.56874 l 2.5,-0.68069 -1.37812,0.9537 -1.37811,0.9537 0.68713,1.11181 0.68713,1.1118 -1.80901,-0.0525 c -0.99496,-0.0288 -2.79348,-0.74012 -3.99671,-1.5806 z m 7.93769,0.94372 c 0.9625,-0.25152 2.5375,-0.25152 3.5,0 l 1.75,0.45733 H 263 259.5 Z M 271,258.9393 c 0,-0.51661 0.65383,-0.9393 1.45295,-0.9393 0.79912,0 2.60558,-0.52518 4.01436,-1.16706 l 2.56142,-1.16706 -0.56614,-2.08294 -0.56615,-2.08294 1.51975,1.89732 c 1.98216,2.47463 1.47962,3.10944 -3.91736,4.94838 L 271,259.8786 Z m -17,-1.31686 c 0,-0.20765 0.6853,-0.9463 1.52289,-1.64144 l 1.52289,-1.26389 -0.62988,1.64145 C 255.87801,257.76029 254,258.74278 254,257.62244 Z m -22,-1 c 0,-0.20765 0.6853,-0.9463 1.52289,-1.64144 l 1.52289,-1.26389 -0.62988,1.64145 C 233.87801,256.76029 232,257.74278 232,256.62244 Z m -12.12506,-1.80007 2.37494,-1.2395 1.90019,-4.43297 c 1.04511,-2.43813 2.15148,-4.18168 2.45862,-3.87454 0.30713,0.30713 -0.35387,2.62082 -1.4689,5.14153 L 223.11246,255 h -0.97444 c -0.53595,0 -1.79875,0.23892 -2.80623,0.53093 L 217.5,256.06186 Z m 38.13003,-1.44993 C 258.00224,252.75229 258.675,251.68469 259.5,251 l 1.5,-1.24489 v -1.87467 -1.87468 l -3.70103,-4.25288 -3.70103,-4.25288 4.70103,4.45821 c 2.58557,2.45201 4.68485,4.92701 4.66507,5.5 -0.0198,0.57298 -1.14255,2.39179 -2.49504,4.04179 l -2.45907,3 z M 236,249.18146 c 0,-1.20855 1.8972,-2.61759 2.5907,-1.9241 0.2517,0.2517 -0.22824,1.02686 -1.06653,1.72258 L 236,250.24489 Z m 39.67589,-0.58369 C 275.03564,246.9293 275.79161,246 277.78911,246 h 1.45578 l -1.11377,1.34201 -1.11377,1.34201 0.65799,0.65799 0.65799,0.65799 h -1.05967 c -0.58283,0 -1.30182,-0.63101 -1.59777,-1.40223 z M 238.5,244 c 0.33992,-0.55 0.81648,-1 1.05902,-1 0.24254,0 0.44098,0.45 0.44098,1 0,0.55 -0.47656,1 -1.05902,1 h -1.05901 z M 226,243.28152 c 0,-0.63992 0.45,-1.4416 1,-1.78152 0.55,-0.33992 1,-1.08962 1,-1.66601 v -1.04797 l -1.75,0.60944 -1.75,0.60945 1.94113,-1.50246 c 1.06762,-0.82635 2.41762,-1.46692 3,-1.4235 l 1.05887,0.0789 -1.25623,0.50647 -1.25623,0.50646 0.56416,0.91284 0.56417,0.91283 -1.55794,2.22426 -1.55793,2.2243 z m 14.79011,-3.41118 -0.44549,-1.33649 2.47647,-1.28481 c 3.24468,-1.68336 3.41666,-1.26943 0.6666,1.60437 l -2.25208,2.35341 z m 10.42046,-4.4712 L 249.92115,234 h 0.98041 c 1.03844,0 2.54172,1.90221 1.94858,2.46567 -0.19258,0.18294 -0.93038,-0.297 -1.63957,-1.06653 z m 7.39068,-55.23531 -0.57923,-0.93722 1.46798,-1.21831 1.46797,-1.21831 -0.97898,-1.82925 L 259,173.13148 v -8.98241 -8.9824 l 1.25,-0.58334 L 261.5,154 260.25,153.41667 259,152.83333 v -1.80967 -1.80968 l 1.58179,-0.60699 c 0.86998,-0.33385 1.99498,-0.60699 2.5,-0.60699 H 264 v 4 4 h 2 2 v 1.10699 1.10699 l -1.46797,-0.56332 -1.46798,-0.56331 -0.67149,1.08649 c -0.36932,0.59757 -0.59333,4.74041 -0.49782,9.20632 l 0.17367,8.11984 -2.44396,2.80052 -2.44397,2.80052 z m 36.37975,-37.68672 -1.26389,-1.52289 1.64145,0.62988 c 0.90279,0.34643 1.64144,1.03173 1.64144,1.52289 0,1.28596 -0.57887,1.10536 -2.019,-0.62988 z M 123,274.27847 c -0.825,-0.31 -2.7375,-1.43012 -4.25,-2.48915 L 116,269.86381 v -1.9319 c 0,-2.4986 0.0717,-2.48461 6.01891,1.17474 l 5.04895,3.10665 -1.15637,1.39335 c -0.63601,0.76634 -1.21378,1.35782 -1.28393,1.3144 -0.0702,-0.0434 -0.80256,-0.33258 -1.62756,-0.64258 z"
         id="path4590"
         sodipodi:nodetypes="sscccccsssscsscccsscccsscsscsscsssscccccccccsscsscsssssssssssssscccccsscsscsscscssscccccccsscccccccsscsscccccsscccccccsscsscccccsscccccsssscccccsscsssssscccsscccsscccccccccssccccsscccsscccsscsscccccsssssscsscccsccccccssscssscsccsscccsscccccsscsscccsssscccsscssscsssscssccssscssccsscccccssscsssscssscccccsssssscsssscccsscccccccsccssccscsssccccccccccccccsscccccccccssccccscssssscsscsss" />
      <path
         style="display:inline;fill:#d57336"
         d="m 230,310.10356 c -14.92893,-3.31246 -25.86438,-8.26011 -38.12298,-17.24842 -7.66089,-5.61715 -16.15724,-14.42431 -20.41217,-21.15889 L 168.5,267.00358 152.25,267.00179 136,267 v -1 -1 h 15 c 8.25,0 15,-0.18305 15,-0.40678 0,-0.22373 -1.38319,-3.48623 -3.07375,-7.25 C 161.23569,253.57945 158.67102,246.675 157.22699,242 l -2.62551,-8.5 V 216 198.5 l 2.74446,-8.92108 c 6.02013,-19.5689 16.53379,-35.59577 31.26194,-47.65519 13.02059,-10.66128 27.34212,-17.45676 43.23009,-20.51244 L 239.17594,120 H 250 260.82406 l 7.33797,1.41706 c 8.54146,1.64947 20.14273,5.69218 26.72325,9.31228 11.70663,6.44009 26.26634,18.99631 32.29643,27.85229 l 2.31829,3.4047 3.25,0.007 L 336,162 v 1 1 h -2 c -1.1,0 -2,0.24562 -2,0.54583 0,0.30021 2.01476,4.68771 4.47725,9.75 l 4.47724,9.20417 2.11799,8 2.11798,8 0.52542,12 0.52541,12 -1.15876,7.43724 c -1.3049,8.37514 -5.03346,20.17338 -8.65754,27.39492 -1.33375,2.65769 -2.42499,5.24519 -2.42499,5.75 V 265 h 15 15 v 1 1 l -16.25,0.002 -16.25,0.002 -2.96837,4.69823 c -4.00245,6.33495 -15.6753,17.97078 -23.03163,22.95858 -8.87502,6.01752 -19.3074,10.99469 -29.21168,13.93655 l -8.78832,2.61039 -14.5,0.39111 -14.5,0.39112 z m 36,-1.54924 c 10.67401,-2.05701 17.25093,-4.35635 27.25401,-9.52824 l 8.754,-4.52608 6.746,-5.40014 c 8.28166,-6.62943 20.35295,-20.32624 19.05651,-21.62267 -0.20504,-0.20504 -13.09374,-0.56874 -28.64156,-0.80823 -15.54782,-0.23948 -28.52065,-0.68731 -28.82851,-0.99518 -0.30786,-0.30786 8.34466,-0.59048 19.22784,-0.62804 10.88318,-0.0376 20.01685,-0.29755 20.29705,-0.57774 0.76578,-0.76578 -5.78159,-6.03666 -10.67127,-8.59077 C 295.1184,253.74831 293.03915,252 294.58292,252 c 0.38553,0 3.60378,1.8333 7.15168,4.074 3.5479,2.2407 6.65252,3.87221 6.89916,3.62557 0.24664,-0.24664 -0.60583,-1.74244 -1.89437,-3.324 -1.28854,-1.58156 -4.47977,-5.91307 -7.09162,-9.62557 L 294.89895,240 h -1.29201 -1.292 l -1.84357,3.4233 -1.84357,3.4233 1.30855,1.5767 c 1.88913,2.27627 0.49315,1.94065 -3.65645,-0.87907 l -3.614,-2.45578 -0.83295,0.51479 c -0.99513,0.61503 -1.04566,0.11464 -0.20867,-2.06652 l 0.62429,-1.62686 1.43242,2.04507 c 0.78783,1.12479 2.01665,2.04507 2.7307,2.04507 h 1.29829 l 2.82657,-4.47176 2.82658,-4.47176 1.451,1.20422 c 0.79805,0.66232 2.40384,2.61293 3.56843,4.33468 1.16459,1.72175 5.44808,7.48485 9.51885,12.80688 l 7.40142,9.67642 7.59858,-0.28934 L 330.5,264.5 l 3.72693,-7.5 3.72694,-7.5 2.63315,-9 2.63315,-9 0.032,-15 0.032,-15 -2.17789,-7.86516 c -2.56044,-9.24671 -5.93942,-17.54431 -9.8897,-24.28563 l -2.84153,-4.84921 -3.43754,-0.3213 c -1.89065,-0.17671 -3.86504,-0.73921 -4.38754,-1.25 L 319.6,162 h 3.2 3.2 v -0.87827 c 0,-1.68619 -13.47096,-15.41131 -19.95927,-20.33585 l -6.54073,-4.96431 -9,-4.38803 -9,-4.38803 -8,-2.20339 -8,-2.2034 H 250 234.5 l -8,2.19654 c -15.47762,4.24965 -29.07345,11.99574 -41.1406,23.43947 l -7.14379,6.77472 -4.97832,7.22528 C 165.4171,173.62455 161.15295,183.2635 157.87526,197 l -1.31237,5.5 v 13.5 13.5 l 1.32254,5.5 c 2.07053,8.61058 3.92446,13.88528 7.82036,22.25 l 3.6096,7.75 h 7.62971 7.62972 l 8.83091,-10.52814 c 4.85701,-5.79048 9.67767,-10.98131 10.71259,-11.53518 L 206,241.92963 v 0.97617 c 0,0.53689 -0.53557,1.30717 -1.19016,1.71173 l -1.19016,0.73555 3.94016,1.21861 3.94016,1.2186 -5.38976,0.10486 -5.38975,0.10485 -1.11025,1.4228 c -0.61063,0.78254 -3.08629,3.94398 -5.50147,7.02543 -2.41518,3.08145 -4.19418,5.79969 -3.95334,6.04053 0.55085,0.55085 9.56311,-2.07928 12.6733,-3.69857 1.2808,-0.66683 4.5433,-3.39234 7.25,-6.05668 5.69059,-5.60153 6.7489,-5.1895 1.21832,0.47433 L 207.5941,257 h 2.13785 c 1.17582,0 3.29215,-0.43886 4.70295,-0.97525 L 217,255.0495 v 0.90429 0.90429 l -5.75,1.65175 c -15.34963,4.40933 -17.24732,5.04416 -17.24861,5.77015 l -10e-4,0.77997 28.45122,-0.27997 28.45121,-0.27998 -0.93981,0.9386 -0.93982,0.9386 -38.2614,0.41951 c -21.04377,0.23073 -38.43486,0.58182 -38.64686,0.78019 -0.58004,0.54276 2.67917,5.29388 7.63907,11.13585 l 4.42569,5.21275 7.16035,5.46202 c 12.92593,9.86008 26.13452,15.9025 41.66035,19.05799 l 6.5,1.32106 9.5,0.11655 9.5,0.11654 z m -12.68769,-44.18737 -2.18768,-1.52815 0.54467,-1.4194 C 251.96887,260.63873 252.67093,260 253.22943,260 h 1.01546 L 253,261.5 l -1.24489,1.5 1.37245,0.11842 c 2.06342,0.17804 2.1794,0.16451 4.87244,-0.56874 l 2.5,-0.68069 -1.37812,0.9537 -1.37811,0.9537 0.68713,1.11181 0.68713,1.1118 -1.80901,-0.0525 c -0.99496,-0.0288 -2.79348,-0.74012 -3.99671,-1.5806 z m 7.93769,0.94372 c 0.9625,-0.25152 2.5375,-0.25152 3.5,0 l 1.75,0.45733 H 263 259.5 Z M 271,258.9393 c 0,-0.51661 0.65383,-0.9393 1.45295,-0.9393 0.79912,0 2.60558,-0.52518 4.01436,-1.16706 l 2.56142,-1.16706 -0.56614,-2.08294 -0.56615,-2.08294 1.51975,1.89732 c 1.98216,2.47463 1.47962,3.10944 -3.91736,4.94838 L 271,259.8786 Z m -17,-1.31686 c 0,-0.20765 0.6853,-0.9463 1.52289,-1.64144 l 1.52289,-1.26389 -0.62988,1.64145 C 255.87801,257.76029 254,258.74278 254,257.62244 Z m -22,-1 c 0,-0.20765 0.6853,-0.9463 1.52289,-1.64144 l 1.52289,-1.26389 -0.62988,1.64145 C 233.87801,256.76029 232,257.74278 232,256.62244 Z m -12.12506,-1.80007 2.37494,-1.2395 1.90019,-4.43297 c 1.04511,-2.43813 2.15148,-4.18168 2.45862,-3.87454 0.30713,0.30713 -0.35387,2.62082 -1.4689,5.14153 L 223.11246,255 h -0.97444 c -0.53595,0 -1.79875,0.23892 -2.80623,0.53093 L 217.5,256.06186 Z m 38.13003,-1.44993 C 258.00224,252.75229 258.675,251.68469 259.5,251 l 1.5,-1.24489 v -1.87467 -1.87468 l -3.70103,-4.25288 -3.70103,-4.25288 4.70103,4.45821 c 2.58557,2.45201 4.68485,4.92701 4.66507,5.5 -0.0198,0.57298 -1.14255,2.39179 -2.49504,4.04179 l -2.45907,3 z M 236,249.18146 c 0,-1.20855 1.8972,-2.61759 2.5907,-1.9241 0.2517,0.2517 -0.22824,1.02686 -1.06653,1.72258 L 236,250.24489 Z m 39.67589,-0.58369 C 275.03564,246.9293 275.79161,246 277.78911,246 h 1.45578 l -1.11377,1.34201 -1.11377,1.34201 0.65799,0.65799 0.65799,0.65799 h -1.05967 c -0.58283,0 -1.30182,-0.63101 -1.59777,-1.40223 z M 238.5,244 c 0.33992,-0.55 0.81648,-1 1.05902,-1 0.24254,0 0.44098,0.45 0.44098,1 0,0.55 -0.47656,1 -1.05902,1 h -1.05901 z m -21.81359,-5 c 0.32569,-2.75 0.36547,-5 0.0884,-5 -0.27708,0 -2.02726,1.34281 -3.88929,2.98403 -1.86203,1.64121 -3.8072,2.99121 -4.3226,3 -1.18958,0.0203 4.05454,-5.53242 7.69884,-8.15187 l 2.76176,-1.98509 5.18493,1.72216 5.18493,1.72216 2.88567,-3.3957 c 1.58712,-1.86763 5.99861,-7.39019 9.80332,-12.27236 L 249,208.74667 v -11.81432 -11.81432 l 1,-0.61803 1,-0.61803 v 12.60829 12.6083 l 6.25,7.85101 c 3.4375,4.31805 7.44243,9.35837 8.89985,11.20072 l 2.64984,3.34971 5.12374,-2.82095 5.12375,-2.82094 6.54418,4.66983 c 3.59931,2.56841 6.30274,4.9113 6.00762,5.20641 -0.29511,0.29511 -1.67561,-0.19939 -3.06777,-1.09889 -1.39217,-0.8995 -3.72438,-2.40688 -5.1827,-3.34973 l -2.65149,-1.71427 0.69681,3.71427 0.6968,3.71427 h -0.93403 -0.93402 l -0.65002,-3.46492 c -0.35751,-1.90571 -1.08567,-3.73416 -1.61812,-4.06324 l -0.96809,-0.59831 -3.24317,2.2394 c -1.78375,1.23167 -3.39214,2.34658 -3.5742,2.47759 -0.18206,0.131 0.17127,1.17673 0.78518,2.32383 L 272.07037,238 h -1.12881 -1.1288 l -0.49496,-1.89272 -0.49495,-1.89271 -3.03643,-0.60729 C 264.11639,233.27328 260.48125,233 257.70833,233 h -5.04166 l 0.67384,-0.67385 0.67385,-0.67384 5.99282,0.24458 5.99282,0.24458 v -0.6818 c 0,-0.37499 -3.21582,-4.71438 -7.14627,-9.64309 l -7.14626,-8.96128 -0.83842,1.32235 -0.83842,1.32235 -0.0153,7.25 L 250,230 h -1.05217 -1.05216 l 0.61193,-8.75 0.61194,-8.75 -4.15761,4.48886 c -2.28668,2.46887 -4.7421,5.61914 -5.45648,7.0006 -0.71438,1.38146 -2.94293,4.25496 -4.95233,6.38554 l -3.65346,3.8738 -4.19983,-0.50566 c -2.30991,-0.27811 -4.85786,-0.67159 -5.66212,-0.8744 l -1.4623,-0.36874 -0.90122,5.75 -0.90121,5.75 h -0.83938 -0.83937 z M 226,243.28152 c 0,-0.63992 0.45,-1.4416 1,-1.78152 0.55,-0.33992 1,-1.08962 1,-1.66601 v -1.04797 l -1.75,0.60944 -1.75,0.60945 1.94113,-1.50246 c 1.06762,-0.82635 2.41762,-1.46692 3,-1.4235 l 1.05887,0.0789 -1.25623,0.50647 -1.25623,0.50646 0.56416,0.91284 0.56417,0.91283 -1.55794,2.22426 -1.55793,2.2243 z m 14.79011,-3.41118 -0.44549,-1.33649 2.47647,-1.28481 c 3.24468,-1.68336 3.41666,-1.26943 0.6666,1.60437 l -2.25208,2.35341 z m 10.42046,-4.4712 L 249.92115,234 h 0.98041 c 1.03844,0 2.54172,1.90221 1.94858,2.46567 -0.19258,0.18294 -0.93038,-0.297 -1.63957,-1.06653 z M 261.3605,164 v -9.5 l 0.37454,4.75 c 0.206,2.6125 0.206,6.8875 0,9.5 l -0.37454,4.75 z m -0.28155,-12.58333 0.0789,-1.91667 0.52522,1.3125 c 0.28887,0.72187 0.25335,1.58437 -0.0789,1.91667 L 261,153.33333 Z M 119.44113,271.44483 117.5,269.88967 l 2.25,1.09035 c 1.2375,0.59969 2.25,1.29951 2.25,1.55516 0,0.76522 -0.51861,0.54424 -2.55887,-1.09035 z"
         id="path4589"
         sodipodi:nodetypes="csscccccsssscccssscccssscccccssscccccssscccccccsssccccsscsssssssssssscccccsscsscsscccssscccccccccsscsscccsscccccccsscsscccsscccsscsscccccsssssscsscccsccccccssscsscccsccsscccsscccccsscsscccsssscccsscssscsssscssccssscssccsscccccssscsssscssscccccsssssscsssssscccsscccccccsscccsssscccccsscssscccccsscccccsscccccccccssscsscccccsssscccsscccccccsccssccscsssccssccccssccscsss" />
      <path
         style="display:inline;fill:#27a49d"
         d="m 230,310.10356 c -14.92893,-3.31246 -25.86438,-8.26011 -38.12298,-17.24842 -7.66089,-5.61715 -16.15724,-14.42431 -20.41217,-21.15889 L 168.5,267.00358 152.25,267.00179 136,267 v -1 -1 h 15 c 8.25,0 15,-0.18305 15,-0.40678 0,-0.22373 -1.38319,-3.48623 -3.07375,-7.25 C 161.23569,253.57945 158.67102,246.675 157.22699,242 l -2.62551,-8.5 V 216 198.5 l 2.74446,-8.92108 c 6.02013,-19.5689 16.53379,-35.59577 31.26194,-47.65519 13.02059,-10.66128 27.34212,-17.45676 43.23009,-20.51244 L 239.17594,120 H 250 260.82406 l 7.33797,1.41706 c 8.54146,1.64947 20.14273,5.69218 26.72325,9.31228 11.70663,6.44009 26.26634,18.99631 32.29643,27.85229 l 2.31829,3.4047 3.25,0.007 L 336,162 v 1 1 h -2 c -1.1,0 -2,0.24562 -2,0.54583 0,0.30021 2.01476,4.68771 4.47725,9.75 l 4.47724,9.20417 2.11799,8 2.11798,8 0.52542,12 0.52541,12 -1.15876,7.43724 c -1.3049,8.37514 -5.03346,20.17338 -8.65754,27.39492 -1.33375,2.65769 -2.42499,5.24519 -2.42499,5.75 V 265 h 15 15 v 1 1 l -16.25,0.002 -16.25,0.002 -2.96837,4.69823 c -4.00245,6.33495 -15.6753,17.97078 -23.03163,22.95858 -8.87502,6.01752 -19.3074,10.99469 -29.21168,13.93655 l -8.78832,2.61039 -14.5,0.39111 -14.5,0.39112 z m 36.05634,-1.54985 c 9.74727,-1.86519 15.58006,-3.82534 25.44366,-8.55055 l 8,-3.83243 6.51385,-4.94012 C 314.74087,284.61202 328,270.51947 328,267.8625 V 267 h -6 -6 v -0.95619 -0.95619 l 7.25,-0.29381 7.25,-0.29381 3.72693,-7.5 3.72694,-7.5 2.63315,-9 2.63315,-9 0.032,-15 0.032,-15 -2.17789,-7.86516 c -2.56044,-9.24671 -5.93942,-17.54431 -9.8897,-24.28563 l -2.84153,-4.84921 -3.43754,-0.3213 c -1.89065,-0.17671 -3.86504,-0.73921 -4.38754,-1.25 L 319.6,162 h 3.2 3.2 v -0.87827 c 0,-1.68619 -13.47096,-15.41131 -19.95927,-20.33585 l -6.54073,-4.96431 -9,-4.38803 -9,-4.38803 -8,-2.20339 -8,-2.2034 H 250 234.5 l -8,2.19654 c -15.47762,4.24965 -29.07345,11.99574 -41.1406,23.43947 l -7.14379,6.77472 -4.97832,7.22528 C 165.4171,173.62455 161.15295,183.2635 157.87526,197 l -1.31237,5.5 v 13.5 13.5 l 1.32254,5.5 c 2.07053,8.61058 3.92446,13.88528 7.82036,22.25 l 3.6096,7.75 h 7.3423 H 184 v 1 1 h -6 -6 v 0.77749 c 0,1.12003 2.72979,4.95827 7.77723,10.93526 l 4.40207,5.21275 7.16035,5.46202 c 12.92593,9.86008 26.13452,15.9025 41.66035,19.05799 l 6.5,1.32106 9.5,0.11655 9.5,0.11654 z M 216.68641,239 c 0.32569,-2.75 0.36547,-5 0.0884,-5 -0.27708,0 -2.02726,1.34281 -3.88929,2.98403 -1.86203,1.64121 -3.8072,2.99121 -4.3226,3 -1.18958,0.0203 4.05454,-5.53242 7.69884,-8.15187 l 2.76176,-1.98509 5.18493,1.72216 5.18493,1.72216 2.88567,-3.3957 c 1.58712,-1.86763 5.99861,-7.39019 9.80332,-12.27236 L 249,208.74667 v -11.81432 -11.81432 l 1,-0.61803 1,-0.61803 v 12.60829 12.6083 l 6.25,7.85101 c 3.4375,4.31805 7.44243,9.35837 8.89985,11.20072 l 2.64984,3.34971 5.12374,-2.82095 5.12375,-2.82094 6.54418,4.66983 c 3.59931,2.56841 6.30274,4.9113 6.00762,5.20641 -0.29511,0.29511 -1.67561,-0.19939 -3.06777,-1.09889 -1.39217,-0.8995 -3.72438,-2.40688 -5.1827,-3.34973 l -2.65149,-1.71427 0.69681,3.71427 0.6968,3.71427 h -0.93403 -0.93402 l -0.65002,-3.46492 c -0.35751,-1.90571 -1.08567,-3.73416 -1.61812,-4.06324 l -0.96809,-0.59831 -3.24317,2.2394 c -1.78375,1.23167 -3.39214,2.34658 -3.5742,2.47759 -0.18206,0.131 0.17127,1.17673 0.78518,2.32383 L 272.07037,238 h -1.12881 -1.1288 l -0.49496,-1.89272 -0.49495,-1.89271 -3.03643,-0.60729 C 264.11639,233.27328 260.48125,233 257.70833,233 h -5.04166 l 0.67384,-0.67385 0.67385,-0.67384 5.99282,0.24458 5.99282,0.24458 v -0.6818 c 0,-0.37499 -3.21582,-4.71438 -7.14627,-9.64309 l -7.14626,-8.96128 -0.83842,1.32235 -0.83842,1.32235 -0.0153,7.25 L 250,230 h -1.05217 -1.05216 l 0.61193,-8.75 0.61194,-8.75 -4.15761,4.48886 c -2.28668,2.46887 -4.7421,5.61914 -5.45648,7.0006 -0.71438,1.38146 -2.94293,4.25496 -4.95233,6.38554 l -3.65346,3.8738 -4.19983,-0.50566 c -2.30991,-0.27811 -4.85786,-0.67159 -5.66212,-0.8744 l -1.4623,-0.36874 -0.90122,5.75 -0.90121,5.75 h -0.83938 -0.83937 z m 44.67409,-75 v -9.5 l 0.37454,4.75 c 0.206,2.6125 0.206,6.8875 0,9.5 l -0.37454,4.75 z m -0.28155,-12.58333 0.0789,-1.91667 0.52522,1.3125 c 0.28887,0.72187 0.25335,1.58437 -0.0789,1.91667 L 261,153.33333 Z M 119.44113,271.44483 117.5,269.88967 l 2.25,1.09035 c 1.2375,0.59969 2.25,1.29951 2.25,1.55516 0,0.76522 -0.51861,0.54424 -2.55887,-1.09035 z"
         id="path4588"
         sodipodi:nodetypes="csscccccsssscccssscccssscccccssscccccssscccccccsssccccsscsscccccccccccccsscsscccsscccccccsscsscccsscccccccsscsscccsssssscccsscccccccsscccsssscccccsscssscccccsscccccsscccccccccssscsscccccsccssccccssccscsss" />
      <path
         style="display:inline;fill:#21578c"
         d="m 230,310.10356 c -14.92893,-3.31246 -25.86438,-8.26011 -38.12298,-17.24842 -7.66089,-5.61715 -16.15724,-14.42431 -20.41217,-21.15889 L 168.5,267.00358 152.25,267.00179 136,267 v -1 -1 h 15 c 8.25,0 15,-0.18305 15,-0.40678 0,-0.22373 -1.38319,-3.48623 -3.07375,-7.25 C 161.23569,253.57945 158.67102,246.675 157.22699,242 l -2.62551,-8.5 V 216 198.5 l 2.74446,-8.92108 c 6.02013,-19.5689 16.53379,-35.59577 31.26194,-47.65519 13.02059,-10.66128 27.34212,-17.45676 43.23009,-20.51244 L 239.17594,120 H 250 260.82406 l 7.33797,1.41706 c 8.54146,1.64947 20.14273,5.69218 26.72325,9.31228 11.70663,6.44009 26.26634,18.99631 32.29643,27.85229 l 2.31829,3.4047 3.25,0.007 L 336,162 v 1 1 h -2 c -1.1,0 -2,0.24562 -2,0.54583 0,0.30021 2.01476,4.68771 4.47725,9.75 l 4.47724,9.20417 2.11799,8 2.11798,8 0.52542,12 0.52541,12 -1.15876,7.43724 c -1.3049,8.37514 -5.03346,20.17338 -8.65754,27.39492 -1.33375,2.65769 -2.42499,5.24519 -2.42499,5.75 V 265 h 15 15 v 1 1 l -16.25,0.002 -16.25,0.002 -2.96837,4.69823 c -4.00245,6.33495 -15.6753,17.97078 -23.03163,22.95858 -8.87502,6.01752 -19.3074,10.99469 -29.21168,13.93655 l -8.78832,2.61039 -14.5,0.39111 -14.5,0.39112 z m 36.05634,-1.54985 c 9.74727,-1.86519 15.58006,-3.82534 25.44366,-8.55055 l 8,-3.83243 6.51385,-4.94012 C 314.74087,284.61202 328,270.51947 328,267.8625 V 267 h -6 -6 v -0.95619 -0.95619 l 7.25,-0.29381 7.25,-0.29381 3.72693,-7.5 3.72694,-7.5 2.63315,-9 2.63315,-9 0.032,-15 0.032,-15 -2.17789,-7.86516 c -2.56044,-9.24671 -5.93942,-17.54431 -9.8897,-24.28563 l -2.84153,-4.84921 -3.43754,-0.3213 c -1.89065,-0.17671 -3.86504,-0.73921 -4.38754,-1.25 L 319.6,162 h 3.2 3.2 v -0.87827 c 0,-1.68619 -13.47096,-15.41131 -19.95927,-20.33585 l -6.54073,-4.96431 -9,-4.38803 -9,-4.38803 -8,-2.20339 -8,-2.2034 H 250 234.5 l -8,2.19654 c -15.47762,4.24965 -29.07345,11.99574 -41.1406,23.43947 l -7.14379,6.77472 -4.97832,7.22528 C 165.4171,173.62455 161.15295,183.2635 157.87526,197 l -1.31237,5.5 v 13.5 13.5 l 1.32254,5.5 c 2.07053,8.61058 3.92446,13.88528 7.82036,22.25 l 3.6096,7.75 h 7.3423 H 184 v 1 1 h -6 -6 v 0.77749 c 0,1.12003 2.72979,4.95827 7.77723,10.93526 l 4.40207,5.21275 7.16035,5.46202 c 12.92593,9.86008 26.13452,15.9025 41.66035,19.05799 l 6.5,1.32106 9.5,0.11655 9.5,0.11654 z M 249.09968,190.80902 249,185.11803 250,184.5 l 1,-0.61803 -0.0997,3.80901 C 250.8455,189.78594 250.44035,192.625 250,194 l -0.80064,2.5 z M 261.3605,164 v -9.5 l 0.37454,4.75 c 0.206,2.6125 0.206,6.8875 0,9.5 l -0.37454,4.75 z m -0.28155,-12.58333 0.0789,-1.91667 0.52522,1.3125 c 0.28887,0.72187 0.25335,1.58437 -0.0789,1.91667 L 261,153.33333 Z"
         id="path4587"
         sodipodi:nodetypes="csscccccsssscccssscccssscccccssscccccssscccccccsssccccsscsscccccccccccccsscsscccsscccccccsscsscccsscccccccsscsscccsccccssccccssccccsscc" />
      <path
         style="display:inline;fill:#1c4876"
         d="m 242.5,311 -3,-0.76337 9,-0.103 9,-0.103 L 256,311 l -1.5,0.96937 -4.5,-0.103 c -2.475,-0.0566 -5.85,-0.44652 -7.5,-0.86637 z m -9.5,-1.05902 v -1.05901 l -0.9309,0.57532 -0.9309,0.57533 -0.62812,-1.01631 L 229.88197,308 h 1.43657 c 0.79011,0 1.99677,0.675 2.68146,1.5 l 1.24489,1.5 h -1.12245 C 233.5051,311 233,310.52344 233,309.94098 Z m 33.21183,-0.29567 c 0.74508,-0.74508 2.68973,-1.61781 4.32143,-1.9394 1.63171,-0.32159 4.31674,-0.89338 5.96674,-1.27064 l 3,-0.68593 -1.1721,1.24744 c -0.64466,0.68608 -2.48162,1.3999 -4.08213,1.58625 -1.60051,0.18635 -4.13986,0.8064 -5.64299,1.37789 -3.59604,1.36721 -4.01806,1.31151 -2.39095,-0.31561 z M 223,308.29115 c -9.21992,-3.3865 -10.94701,-5.62278 -2.11028,-2.73243 L 226,307.23021 v 0.88489 c 0,0.97092 -0.72077,1.01322 -3,0.17605 z m 57,-2.35017 v -1.05901 l 1,0.61803 1,0.61803 v -0.83978 c 0,-0.46187 1.34805,-1.34861 2.99568,-1.97052 l 2.99567,-1.13074 0.65884,1.06601 0.65883,1.06602 -1.15451,-0.71353 L 287,302.88197 v 0.96119 c 0,0.52865 -1.41715,1.45521 -3.14922,2.05901 -3.85655,1.34441 -3.85078,1.34435 -3.85078,0.0388 z m -68.019,-2.46387 -1.26389,-1.52289 1.64145,0.62988 c 0.90279,0.34643 1.64144,1.03173 1.64144,1.52289 0,1.28596 -0.57887,1.10536 -2.019,-0.62988 z M 203,299.76862 c -3.025,-1.641 -5.65,-3.38525 -5.83333,-3.87613 C 196.98333,295.40162 196.35468,295 195.76966,295 193.60851,295 181,283.89063 181,281.98644 v -1.10447 l -0.75,0.46025 -0.75,0.46026 -5.20006,-6.57754 -5.20005,-6.57754 0.50603,-0.81878 0.50603,-0.81877 5.78035,7.24507 c 9.31871,11.68006 18.14692,18.95012 31.93217,26.29628 l 2.32448,1.23871 -0.82448,0.48117 C 208.87101,302.53573 206.025,301.40962 203,299.76862 Z m 87,2.30462 c 0,-0.50972 1.36856,-1.60948 3.04124,-2.44393 1.67269,-0.83444 4.59769,-2.4791 6.5,-3.6548 1.90232,-1.1757 3.45876,-1.89638 3.45876,-1.60152 0,0.29485 1.03472,-0.45594 2.29937,-1.66844 1.26465,-1.2125 4.26447,-3.77955 6.66627,-5.70455 4.92857,-3.95016 5.04651,-4.07652 12.13412,-13 2.83949,-3.575 5.66616,-6.83061 6.28148,-7.23469 L 331.5,266.03063 330,266 l -1.5,-0.0306 1.12259,-0.73468 c 1.52528,-0.99824 7.71254,-13.55887 9.76328,-19.82026 2.11864,-6.46871 2.5068,-8.26306 3.76715,-17.41443 l 1.03292,-7.5 -0.64373,-10.70329 -0.64374,-10.70329 -2.01361,-7.29671 -2.01361,-7.29671 -4.63439,-9.5 c -2.54892,-5.225 -4.5924,-10.07776 -4.54108,-10.78392 l 0.0933,-1.28391 -2.14454,0.52468 -2.14454,0.52469 1.25708,-0.57646 1.25707,-0.57646 -2.22441,-3.16431 c -1.22342,-1.74037 -5.34342,-6.23318 -9.15555,-9.98403 l -6.93115,-6.81972 -7.26386,-4.9016 c -3.99512,-2.69588 -10.2283,-6.25934 -13.85152,-7.91881 -7.15957,-3.27915 -8.46092,-4.43705 -3.33766,-2.96973 8.718,2.49686 22.70366,11.48405 32.14846,20.65861 4.93291,4.79176 12.73304,14.68094 12.53654,15.89409 -0.0582,0.3593 0.32216,0.92858 0.84526,1.26508 0.52309,0.33649 1.89224,2.46858 3.04256,4.73798 l 2.09149,4.12618 -0.62382,0.62382 L 334.66667,175 h 1.04352 1.04352 l 2.18328,5.07518 c 1.20081,2.79135 3.07447,8.52885 4.1637,12.75 l 1.98042,7.67482 0.60772,9.70423 0.60771,9.70423 -1.26762,9.29577 -1.26762,9.29577 -2.96841,8.5 c -1.63263,4.675 -4.05392,10.46918 -5.38065,12.87595 -1.32673,2.40678 -2.41289,4.65678 -2.41368,5 L 332.99756,265.5 348.499,265.2011 364,264.9022 v 1.11311 1.1131 l -16.19146,-0.21866 -16.19147,-0.21867 -1.51773,2.40446 c -4.37676,6.9339 -12.60498,15.87551 -20.20944,21.96163 l -3.61011,2.88929 -0.63989,-0.6399 L 305,292.66667 v 1.08089 1.08089 l -5.25,3.24316 c -2.8875,1.78373 -5.8125,3.24733 -6.5,3.25244 -0.6875,0.005 -1.25,0.38428 -1.25,0.84262 0,0.45833 -0.45,0.83333 -1,0.83333 -0.55,0 -1,-0.41704 -1,-0.92676 z M 136,266.0153 V 265 h 15.60699 15.60699 l -0.57561,-1.5 -0.5756,-1.5 h 0.86163 c 0.47389,0 1.12064,0.675 1.43723,1.5 l 0.5756,1.5 H 176.46862 184 v 0.88893 0.88894 l -24,0.12636 -24,0.12637 z m 180,-0.0258 V 265 h 6.05902 6.05901 l -0.47995,0.77658 -0.47995,0.77658 -5.57907,0.2129 L 316,266.97897 Z M 163.47674,257.75 c -2.49514,-4.85655 -5.51875,-13.87301 -4.95701,-14.78192 l 0.49273,-0.79726 -1.04863,-0.34954 -1.04862,-0.34954 -1.42272,-7.98587 -1.42271,-7.98587 -0.0273,-9 c -0.0973,-32.04043 15.17713,-61.2673 41.54592,-79.49603 L 203,131.8803 v 0.97207 c 0,0.53464 -2.8125,2.98165 -6.25,5.4378 -8.33471,5.95529 -16.37682,13.93568 -23.04655,22.86969 -6.59449,8.83323 -8.51239,12.559 -12.56989,24.41869 l -3.10599,9.07854 -1.12778,7.92146 -1.12778,7.92145 0.58035,11 0.58034,11 2.00806,7.59975 c 1.10444,4.17987 3.35076,10.59237 4.99183,14.25 L 166.91635,261 h -0.88493 c -0.48672,0 -1.63632,-1.4625 -2.55468,-3.25 z m 97.83313,-90.25 0.0102,-6 0.40466,3.26791 c 0.22256,1.79735 0.21797,4.49735 -0.0102,6 L 261.29966,173.5 Z M 332.5,163 c 0.33992,-0.55 1.26648,-1 2.05902,-1 H 336 v 1 1 h -2.05902 -2.05901 z M 204,132 c 0,-0.55 0.45,-1 1,-1 0.55,0 1,0.45 1,1 0,0.55 -0.45,1 -1,1 -0.55,0 -1,-0.45 -1,-1 z m 4,-2 c 0,-0.55 0.45,-1 1,-1 0.55,0 1,0.45 1,1 0,0.55 -0.45,1 -1,1 -0.55,0 -1,-0.45 -1,-1 z m 3.27576,-1.32869 c 0.21449,-0.64422 1.14018,-1.31681 2.05711,-1.49463 L 215,126.85335 v 0.95669 c 0,0.52619 -0.9257,1.19877 -2.0571,1.49464 l -2.05711,0.53795 z M 217.5,126 c 0.33992,-0.55 1.04148,-1 1.55902,-1 0.51754,0 0.94098,0.45 0.94098,1 v 1 h -1.55902 -1.55901 z m 60.55038,-0.42745 -2.44961,-1.35658 -1.30039,0.499 L 273,125.21398 v -1.04957 -1.04957 l 1.9351,0.37266 c 2.22251,0.42802 6.0649,2.35886 6.0649,3.04768 0,0.63567 -0.15468,0.58519 -2.94962,-0.96263 z M 224,124.2128 c 0,-0.43295 0.9,-0.85499 2,-0.93785 l 2,-0.15065 V 124.06215 125 h -2 c -1.1,0 -2,-0.35424 -2,-0.7872 z m 5.28479,-1.56102 -0.59381,-0.9608 1.08541,0.67082 1.08541,0.67082 0.55086,-0.89131 C 232.08433,121.05453 237,120.94392 237,122.01559 c 0,0.42108 -1.60232,0.95266 -3.5607,1.18129 l -3.56071,0.41569 z M 261,122 l -2.5,-0.80064 4.19098,-0.0997 4.19099,-0.0997 0.61803,1 0.61803,1 -2.30901,-0.0997 C 264.53906,122.8455 262.375,122.44035 261,122 Z m -22.25,-0.66228 c 0.6875,-0.27741 1.8125,-0.27741 2.5,0 l 1.25,0.50439 H 240 237.5 Z M 249.5,121 l -7,-0.64683 7.80902,-0.17658 L 258.11803,120 257.5,121 c -0.33992,0.55 -0.70398,0.92054 -0.80902,0.82341 C 256.58594,121.72629 253.35,121.35575 249.5,121 Z"
         id="path4586"
         sodipodi:nodetypes="scccccssscccccsscssssscsssssscssccccsscccccssscscssssssscccccccsscsssssssssscccssscccccsscccccsscssssssscccccsscccccssccccccccsscccccsssssccccccsscccccccccccccccccsscccccsscsssscccccsscssccssccsscccccssssssssssssscsscsssscccsscccccssssscccssccccsssccscccccsssscccsscccsss" />
    </g>
  </g>
</svg>
