<?xml version="1.0" encoding="UTF-8" standalone="no"?>
<!-- Created with Inkscape (http://www.inkscape.org/) -->

<svg
   version="1.1"
   id="svg1"
   width="500"
   height="500"
   viewBox="0 0 500 500"
   sodipodi:docname="LOGO A BLANCO Y NEGRO SIN FONDO.svg"
   inkscape:version="1.4.3 (0d15f75, 2025-12-25)"
   xmlns:inkscape="http://www.inkscape.org/namespaces/inkscape"
   xmlns:sodipodi="http://sodipodi.sourceforge.net/DTD/sodipodi-0.dtd"
   xmlns="http://www.w3.org/2000/svg"
   xmlns:svg="http://www.w3.org/2000/svg">
  <defs
     id="defs1" />
  <sodipodi:namedview
     id="namedview1"
     pagecolor="#ffffff"
     bordercolor="#000000"
     borderopacity="0.25"
     inkscape:showpageshadow="2"
     inkscape:pageopacity="0.0"
     inkscape:pagecheckerboard="0"
     inkscape:deskcolor="#d1d1d1"
     inkscape:zoom="1.71"
     inkscape:cx="281.87135"
     inkscape:cy="296.49123"
     inkscape:window-width="1278"
     inkscape:window-height="1048"
     inkscape:window-x="1273"
     inkscape:window-y="492"
     inkscape:window-maximized="0"
     inkscape:current-layer="g1" />
  <g
     inkscape:groupmode="layer"
     inkscape:label="Image"
     id="g1">
    <g
       id="g2"
       transform="matrix(1.1721426,0,0,1.1640979,-38.659473,-10.346772)">
      <path
         style="fill:#000000"
         d="m 245.45029,286.07124 c -16.08151,-3.26843 -29.08464,-9.22217 -41.76256,-19.12181 -7.98012,-6.23133 -18.22439,-17.26426 -20.49582,-22.0737 -1.03817,-2.19817 -1.43901,-2.25 -17.40214,-2.25 -13.85732,0 -16.33948,-0.22787 -16.33948,-1.5 0,-1.26674 2.33521,-1.5 15.01685,-1.5 h 15.01684 l -2.56923,-5.07014 c -4.32015,-8.5254 -8.16085,-21.88377 -9.53027,-33.14726 -1.67641,-13.7886 -0.35542,-25.22802 4.89588,-42.39709 1.36601,-4.46617 7.68547,-16.81312 11.38565,-22.24529 11.54713,-16.95213 29.39521,-30.59487 48.28428,-36.907609 12.77869,-4.27065 15.8535,-4.73261 31.5,-4.73261 9.97827,0 17.2812,0.48581 20.5,1.3637 17.14274,4.675529 28.98861,10.513209 40.13073,19.776559 7.25967,6.03556 18.323,17.8549 18.35542,19.60974 0.008,0.4125 1.81385,0.75 4.01385,0.75 2.88889,0 4,0.41667 4,1.5 0,0.93002 -0.94216,1.5 -2.47944,1.5 h -2.47944 l 4.30748,8.75 c 2.36911,4.8125 4.88736,10.775 5.5961,13.25 0.70874,2.475 1.66368,5.74027 2.12208,7.25615 0.45841,1.51588 1.40014,7.29682 2.09275,12.84655 1.08335,8.68066 1.03205,11.64867 -0.36714,21.24385 -1.71273,11.74535 -4.99364,22.81473 -9.23373,31.15345 l -2.54242,5 14.99188,0.27605 c 12.41685,0.22863 14.99188,0.52921 14.99188,1.75 0,1.23703 -2.61201,1.47827 -16.25,1.50085 l -16.25,0.0269 -2.45657,3.98188 c -8.79894,14.26226 -30.26019,30.25625 -48.45117,36.1082 -15.03869,4.83788 -34.52056,6.16159 -48.59226,3.30164 z m 42,-4.45328 c 10.13007,-2.86475 24.16083,-9.67359 31.68415,-15.37567 6.16755,-4.6745 19.51633,-18.25412 21.39562,-21.7656 0.96008,-1.79394 -1.41688,-1.85096 -77.1596,-1.85096 h -78.15019 l 1.72356,2.63049 c 4.41081,6.73174 14.86873,17.07719 22.70198,22.45781 11.1857,7.68341 25.31829,13.53786 38.46423,15.93387 8.36496,1.52462 30.87887,0.36291 39.34025,-2.02994 z m -82.5,-50.60969 c 6.96184,-8.55373 25.56923,-26.38254 27.53466,-26.38254 0.56627,0 2.64508,0.675 4.61958,1.5 1.97451,0.825 4.19299,1.5 4.92997,1.5 0.73698,0 5.62324,-5.5125 10.85835,-12.25 l 9.51838,-12.25 0.0195,-9.25 c 0.0172,-8.12955 -0.19245,-9.25669 -1.73047,-9.3052 -0.9625,-0.0303 -4.1125,-3.19092 -7,-7.02347 l -5.24997,-6.96828 v -13.97652 -13.97653 h 6.53138 c 4.3813,0 6.64073,-0.41149 6.86354,-1.25 1.50134,-5.65015 2.56906,-7.48301 5.51616,-9.46906 3.15974,-2.12935 4.40829,-2.28094 18.78646,-2.28094 16.69907,0 19.29055,0.62681 23.21416,5.61488 3.28811,4.18015 2.80817,9.62897 -1.23692,14.04293 -3.07209,3.35224 -3.77623,3.63658 -9.25,3.73532 -7.73226,0.13947 -8.70782,-1.73421 -1.24908,-2.39901 9.96995,-0.88864 14.0902,-8.08199 8.41328,-14.68836 l -2.41103,-2.80576 -15.22546,-0.32415 c -8.374,-0.17829 -16.303,-0.0537 -17.62,0.27684 -2.31845,0.58189 -6.32114,5.80073 -6.32875,8.25162 -0.002,0.79141 2.3105,1.30569 6.74626,1.5 l 6.75,0.29569 0.5,4 c 0.4001,3.20079 0.94955,4.06385 2.75,4.31955 1.62851,0.23129 2.25,0.99088 2.25,2.75 v 2.43045 h 28.08403 28.08403 l -2.97506,-3.75 c -11.70969,-14.75982 -31.15101,-27.41444 -49.693,-32.34589 -10.06266,-2.676269 -28.17858,-3.615299 -37.90815,-1.964959 -32.82107,5.567159 -60.27954,27.653339 -72.58433,58.383109 -4.49631,11.22899 -6.16945,20.54771 -6.13647,34.17774 0.0386,15.93924 2.99,29.37539 9.12664,41.5481 3.47206,6.88721 3.57932,6.95269 11.37475,6.94348 l 7.12756,-0.008 z m 63.29796,-0.0565 6.29795,-8.54471 -5.79795,-6.14069 c -3.18888,-3.37738 -6.05229,-6.26297 -6.36314,-6.41242 -1.08184,-0.52012 -6.82144,7.53139 -11.30139,15.85359 -4.15902,7.72603 -6.63343,10.7033 -6.63343,7.98149 0,-0.60682 1.96042,-5.03182 4.3565,-9.83333 l 4.35649,-8.73002 -1.48457,-5.25 c -0.81651,-2.8875 -1.76443,-5.24693 -2.10649,-5.24317 -1.48616,0.0163 -5.29061,7.20607 -8.4628,15.99317 l -3.42955,9.5 -6.86479,2.1945 c -3.77563,1.20702 -10.46479,3.2987 -14.86479,4.64824 l -8,2.45369 27,0.0372 27,0.0372 z m 53.16633,7.21709 c -0.80536,-0.8012 -6.63929,-4.85558 -12.96429,-9.00968 -9.07181,-5.95813 -12.02744,-7.42812 -13.99795,-6.96189 -3.42308,0.80989 -3.40586,0.71659 -1.00205,5.42844 1.17674,2.3066 1.99563,4.33006 1.81976,4.4966 -0.17587,0.16653 -5.26976,1.88337 -11.31976,3.8152 l -11,3.51241 24.96429,0.0879 c 21.86482,0.077 24.78248,-0.093 23.5,-1.36892 z m 23.89,-1.80742 c 3.27011,-5.29115 8.01295,-17.97388 9.67343,-25.86754 1.82136,-8.65846 2.0503,-28.9821 0.41568,-36.90247 -2.08044,-10.08056 -5.73144,-19.72108 -10.68569,-28.21575 l -3.35352,-5.75 h -28.88254 -28.88255 l -0.31955,2.25 c -0.20536,1.44596 -1.12359,2.36419 -2.56955,2.56955 -1.76192,0.25023 -2.25,0.96987 -2.25,3.31745 0,2.08007 -1.41623,4.73646 -4.62584,8.6766 -2.54422,3.12329 -4.84236,6.24294 -5.10699,6.93255 -0.26463,0.68967 -1.333,1.2539 -2.37416,1.2539 -1.72354,0 -1.89301,0.84435 -1.89301,9.43153 v 9.43154 l 8.56445,10.81846 c 4.71044,5.95016 8.96529,10.96175 9.45521,11.13687 0.48992,0.17512 2.91811,-0.8697 5.39598,-2.32183 5.02586,-2.94535 4.37948,-3.12595 13.79067,3.85306 4.8951,3.63003 9.14606,8.34534 16.9036,18.75 l 10.36387,13.90037 h 7.18155 c 7.03,0 7.22412,-0.0689 9.19896,-3.26424 z m -125.10429,-6.61691 c 2.8875,-2.47514 5.25,-4.86442 5.25,-5.30953 0,-0.4451 -2.38917,-0.80927 -5.30927,-0.80927 -5.1737,0 -5.42279,0.13406 -9.75452,5.25 -8.01315,9.46382 -7.90661,8.8738 -1.26531,7.00729 3.97731,-1.11781 7.49692,-3.06788 11.0791,-6.13849 z m 61.5,3.7689 c 5.3625,-1.65815 9.75,-3.21938 9.75,-3.46942 0,-0.25004 -2.23019,-4.89878 -4.95597,-10.33054 l -4.95597,-9.87591 -7.10325,-0.71336 c -3.9068,-0.39234 -7.35454,-0.46208 -7.66164,-0.15497 -0.30711,0.30711 1.96954,3.20864 5.05922,6.44785 3.08969,3.23921 5.61761,6.33346 5.61761,6.87611 0,0.54264 -2.52316,4.27533 -5.60703,8.29485 -6.46391,8.4251 -7.21163,8.20319 9.85703,2.92539 z m 38.1273,-1.1377 c -0.40741,-0.6875 -3.42457,-4.79711 -6.7048,-9.13247 l -5.96406,-7.88246 -1.83198,2.38246 c -1.00759,1.31036 -1.84199,2.93711 -1.85422,3.61501 -0.0174,0.96391 15.44217,12.26746 16.77788,12.26746 0.17485,0 -0.0154,-0.5625 -0.42282,-1.25 z m -89.18825,-2.85171 c 4.48524,-1.24247 4.78228,-1.55461 6.8339,-7.18138 1.17966,-3.23534 1.99459,-6.03228 1.81095,-6.21541 -0.18365,-0.18312 -4.07178,3.2675 -8.64029,7.66806 -4.56852,4.40056 -7.49352,7.78201 -6.5,7.51434 0.99351,-0.26768 3.91646,-1.0712 6.49544,-1.78561 z m -1.01832,-13.89423 c 0.3689,-3.02277 0.5939,-5.57177 0.5,-5.66446 -0.0939,-0.0927 -2.85417,2.23232 -6.13392,5.16668 l -5.9632,5.3352 3.4632,0.43615 c 7.11396,0.89591 7.40393,0.70791 8.13392,-5.27357 z m 62.86607,3.97624 c 1.99795,-1.06926 1.97307,-2.6078 -0.18178,-11.24302 -0.99089,-3.97084 -1.50681,-4.01335 -6.19211,-0.51029 -1.7621,1.31747 -1.72298,1.60623 0.95832,7.07328 1.53747,3.13485 2.95625,5.69973 3.15283,5.69973 0.19658,0 1.21482,-0.45886 2.26274,-1.0197 z m 10.06521,-2.64536 2.26514,-3.66506 -3.43358,-2.90463 c -6.55232,-5.54293 -6.8342,-5.4771 -5.42676,1.26739 1.04657,5.01516 2.82451,8.96736 4.03408,8.96736 0.16279,0 1.3153,-1.64928 2.56112,-3.66506 z m -65.96375,-2.23671 4.14232,-3.90178 -3.23322,-1.67196 c -1.77827,-0.91958 -3.3497,-1.52628 -3.49206,-1.34823 -0.46632,0.58323 -2.27665,10.82374 -1.91344,10.82374 0.19475,0 2.21813,-1.7558 4.4964,-3.90177 z m 24.65332,-17.20664 -0.29158,-8.24966 -4.25,5.63613 c -2.3375,3.09987 -4.25,5.92368 -4.25,6.27513 0,0.35145 0.70241,3.0552 1.56091,6.00833 l 1.56091,5.36933 2.98067,-3.3948 c 2.86074,-3.25821 2.96894,-3.72674 2.68909,-11.64446 z m 17.20842,8.59327 c 0,-0.47528 -11.06422,-14.77491 -13.1032,-16.93486 -0.53317,-0.5648 -0.8968,2.55317 -0.8968,7.68963 v 8.63964 l 3.75,0.39226 c 6.40561,0.67005 10.25,0.75006 10.25,0.21333 z m -16.81667,-45.70153 c -0.71756,-0.71756 -1.18333,-0.7766 -1.18333,-0.15 0,0.56834 0.3,1.33334 0.66667,1.7 0.36666,0.36667 0.89916,0.43417 1.18333,0.15 0.28417,-0.28416 -0.0158,-1.04916 -0.66667,-1.7 z m 4.81667,0.0986 c 0,-0.55 -0.45,-0.72189 -1,-0.38197 -0.55,0.33992 -1,1.06803 -1,1.61803 0,0.55 0.45,0.72189 1,0.38197 0.55,-0.33992 1,-1.06803 1,-1.61803 z m 5.40804,-6.38197 1.63807,-2.5 h -10.08207 c -10.31849,0 -10.5128,0.0948 -7.6859,3.75 0.60439,0.78147 3.50152,1.25 7.72929,1.25 6.1099,0 6.92064,-0.24127 8.40061,-2.5 z m 3.59196,-14.5 v -9 h -12 -12 v 9 9 h 12 12 z m -9.42659,-1.56945 c -1.18468,-1.18468 -1.31615,-2.04273 -0.53624,-3.5 1.16494,-2.17672 3.96207,-2.53131 5.76283,-0.73055 1.58146,1.58146 1.5146,2.34254 -0.37143,4.22857 -1.97317,1.97317 -2.8836,1.97354 -4.85516,0.002 z m 14.92659,-0.43051 c 0,-1.83333 -0.5625,-3.52083 -1.25,-3.75 -0.86667,-0.28889 -1.25,0.86111 -1.25,3.75 0,2.88889 0.38333,4.03889 1.25,3.75 0.6875,-0.22917 1.25,-1.91667 1.25,-3.75 z m -5.5,-11 c 0,-0.61111 -4.66667,-1 -12,-1 -7.33333,0 -12,0.38889 -12,1 0,0.61111 4.66667,1 12,1 7.33333,0 12,-0.38889 12,-1 z M 133.52746,247.9437 c -3.8477,-2.29449 -4.07674,-2.69547 -4.06947,-7.12465 0.007,-4.42192 0.23806,-4.82486 3.99122,-6.96812 l 3.98351,-2.27481 4.00879,2.04513 c 3.90884,1.99414 4.00857,2.1755 4.00053,7.2748 -0.008,5.05072 -0.1422,5.30239 -3.92283,7.35433 l -3.91458,2.12465 z m 7.45801,-2.93298 c 3.64242,-2.38661 3.37385,-6.86355 -0.53294,-8.88383 -2.72678,-1.41007 -3.22395,-1.402 -5.5,0.0893 -3.0125,1.97386 -3.43048,6.98439 -0.75224,9.01746 2.32468,1.76469 3.82699,1.71532 6.78518,-0.22296 z"
         id="path1"
         sodipodi:nodetypes="sssssscsssssssscssscsssssscssscsssssssscsssscssssccsscccssssssssscsscscssscccsssssscccccssssscsssccsccccsssssscssssssscccssssssscssssscsssssssssssscsssssssscssssssssssssscssssssssscssssscssssscssscssssscssssssssssssscsssscccccccccssssssssssssssssscscssscsssssss" />
    </g>
  </g>
</svg>
