<?xml version="1.0" encoding="UTF-8" standalone="no"?>
<!-- Created with Inkscape (http://www.inkscape.org/) -->

<svg
   version="1.1"
   id="svg1"
   width="105.33334"
   height="105.54501"
   viewBox="0 0 105.33334 105.54501"
   sodipodi:docname="icons8-instagram-100.svg"
   inkscape:version="1.4.3 (0d15f75, 2025-12-25)"
   xmlns:inkscape="http://www.inkscape.org/namespaces/inkscape"
   xmlns:sodipodi="http://sodipodi.sourceforge.net/DTD/sodipodi-0.dtd"
   xmlns="http://www.w3.org/2000/svg"
   xmlns:svg="http://www.w3.org/2000/svg">
  <defs
     id="defs1" />
  <sodipodi:namedview
     id="namedview1"
     pagecolor="#ffffff"
     bordercolor="#000000"
     borderopacity="0.25"
     inkscape:showpageshadow="2"
     inkscape:pageopacity="0.0"
     inkscape:pagecheckerboard="0"
     inkscape:deskcolor="#d1d1d1"
     inkscape:zoom="6.4125002"
     inkscape:cx="51.617932"
     inkscape:cy="53.567249"
     inkscape:window-width="2560"
     inkscape:window-height="1057"
     inkscape:window-x="-8"
     inkscape:window-y="484"
     inkscape:window-maximized="1"
     inkscape:current-layer="g1" />
  <g
     inkscape:groupmode="layer"
     inkscape:label="Image"
     id="g1"
     transform="translate(-15.091617,-13.064327)">
    <path
       style="fill:#000000"
       d="m 41.758283,117.8931 c -10.260002,-1.90826 -18.447478,-8.15004 -23.800706,-18.144634 -2.677607,-4.99915 -2.86596,-7.2348 -2.86596,-34.01747 0,-26.782679 0.188353,-29.018328 2.86596,-34.017477 3.642626,-6.800863 8.982369,-12.140606 15.783232,-15.783232 4.999149,-2.677607 7.234798,-2.86596 34.017473,-2.86596 26.782675,0 29.018324,0.188353 34.017478,2.86596 6.80086,3.642626 12.1406,8.982369 15.78323,15.783232 2.67761,4.999149 2.86596,7.234798 2.86596,34.017477 0,26.78267 -0.18835,29.01832 -2.86596,34.01747 -3.67267,6.856964 -9.03594,12.191424 -15.78323,15.698464 -4.777303,2.4831 -7.994628,2.8164 -30.017478,3.10966 -13.566666,0.18065 -27.066666,-0.11792 -29.999999,-0.66349 z M 76.270256,92.091206 C 87.938344,88.604866 97.240228,74.046396 95.328133,62.263536 92.658727,45.813913 76.71922,34.807591 61.424949,38.85319 40.092718,44.495934 32.972548,69.682096 48.359617,85.069166 c 7.998581,7.99858 17.034179,10.27185 27.910639,7.02204 z m -14.191275,-8.29772 c -2.756949,-0.96632 -5.946511,-2.532 -7.087915,-3.47928 -6.139784,-5.09557 -7.778383,-17.48531 -3.286763,-24.85182 7.16709,-11.754414 26.512457,-11.07004 32.837732,1.16169 7.841522,15.16384 -6.663069,32.70736 -22.463054,27.16941 z M 99.705122,41.128379 c 2.072798,-2.497567 1.348798,-6.048798 -1.613508,-7.914321 -4.27513,-2.692278 -9.155008,2.715202 -7.154611,7.928153 0.95589,2.491007 6.696804,2.48195 8.768119,-0.01383 z"
       id="path1" />
  </g>
</svg>
